<svg width="44" height="50" viewBox="0 0 44 50" fill="none" xmlns="http://www.w3.org/2000/svg">
<path d="M6.73787 39.5025C-0.0262754 29.5201 4.7474 21.7238 4.7474 21.7238C3.63829 21.3954 0.091156 23.7201 0.091156 23.7201C2.08621 16.4088 13.0595 10.1972 13.0595 10.1972C11.8414 9.75138 8.40483 10.6368 8.40483 10.6368C17.3823 1.99659 28.3569 5.20952 28.3569 5.20952C28.6881 3.32374 34.122 0 34.122 0C33.5662 0.550475 33.342 3.54739 33.342 3.54739C33.8963 2.54834 35.6728 1.55106 35.6728 1.55106C34.6761 3.87574 35.6728 8.86262 35.6728 8.86262C38.5544 11.7467 41.7678 21.724 41.7678 21.724L42.9905 23.497C44.5428 25.7169 43.9722 29.2073 42.4347 30.0352C36.6727 33.1459 36.1153 27.4876 36.1153 27.4876C31.3485 26.9333 27.8011 21.6109 27.8011 21.6109C21.3742 24.9354 24.9537 34.3141 27.7288 37.9155C31.2943 42.532 28.6835 50 28.6835 50C28.6835 50 13.4169 49.3678 6.73787 39.5025Z" fill="#CFD7DA"/>
</svg>
