<svg width="158" height="40" viewBox="0 0 158 40" fill="none" xmlns="http://www.w3.org/2000/svg">
<g filter="url(#filter0_d)">
<rect x="4" width="150" height="32" rx="16" fill="#FF0000"/>
</g>
<path d="M23.9121 15.89C24.4814 16.086 24.9247 16.394 25.2421 16.814C25.5687 17.2247 25.7321 17.7053 25.7321 18.256C25.7321 18.8533 25.5361 19.3713 25.1441 19.81C24.7521 20.2487 24.2201 20.5847 23.5481 20.818C22.8854 21.0513 22.1574 21.168 21.3641 21.168C20.6921 21.168 20.0201 21.084 19.3481 20.916C18.6854 20.748 18.0554 20.4913 17.4581 20.146L18.1581 18.522C18.5874 18.7833 19.0587 18.984 19.5721 19.124C20.0947 19.2547 20.6034 19.32 21.0981 19.32C21.7701 19.32 22.3254 19.1987 22.7641 18.956C23.2121 18.7133 23.4361 18.3727 23.4361 17.934C23.4361 17.57 23.2821 17.2947 22.9741 17.108C22.6754 16.9213 22.2647 16.828 21.7421 16.828H19.3481V15.12H21.5741C22.0314 15.12 22.3861 15.0267 22.6381 14.84C22.8994 14.6533 23.0301 14.3967 23.0301 14.07C23.0301 13.6873 22.8434 13.3887 22.4701 13.174C22.1061 12.9593 21.6347 12.852 21.0561 12.852C20.6267 12.852 20.1834 12.9127 19.7261 13.034C19.2687 13.146 18.8347 13.3187 18.4241 13.552L17.7381 11.788C18.7741 11.256 19.8941 10.99 21.0981 10.99C21.8634 10.99 22.5681 11.102 23.2121 11.326C23.8561 11.55 24.3694 11.8767 24.7521 12.306C25.1347 12.7353 25.3261 13.2347 25.3261 13.804C25.3261 14.2707 25.2001 14.686 24.9481 15.05C24.6961 15.414 24.3507 15.694 23.9121 15.89ZM30.2856 13.356C31.4522 13.356 32.3482 13.636 32.9736 14.196C33.5989 14.7467 33.9116 15.582 33.9116 16.702V21H31.8676V20.062C31.4569 20.762 30.6916 21.112 29.5716 21.112C28.9929 21.112 28.4889 21.014 28.0596 20.818C27.6396 20.622 27.3176 20.3513 27.0936 20.006C26.8696 19.6607 26.7576 19.2687 26.7576 18.83C26.7576 18.13 27.0189 17.5793 27.5416 17.178C28.0736 16.7767 28.8902 16.576 29.9916 16.576H31.7276C31.7276 16.1 31.5829 15.736 31.2936 15.484C31.0042 15.2227 30.5702 15.092 29.9916 15.092C29.5902 15.092 29.1936 15.1573 28.8016 15.288C28.4189 15.4093 28.0922 15.5773 27.8216 15.792L27.0376 14.266C27.4482 13.9767 27.9382 13.7527 28.5076 13.594C29.0862 13.4353 29.6789 13.356 30.2856 13.356ZM30.1176 19.642C30.4909 19.642 30.8222 19.558 31.1116 19.39C31.4009 19.2127 31.6062 18.956 31.7276 18.62V17.85H30.2296C29.3336 17.85 28.8856 18.144 28.8856 18.732C28.8856 19.012 28.9929 19.236 29.2076 19.404C29.4316 19.5627 29.7349 19.642 30.1176 19.642ZM39.1268 18.144H37.9928V21H35.8088V13.468H37.9928V16.394H39.1688L41.2128 13.468H43.5368L40.9048 17.08L43.7188 21H41.1428L39.1268 18.144ZM47.5805 13.356C48.7472 13.356 49.6432 13.636 50.2685 14.196C50.8938 14.7467 51.2065 15.582 51.2065 16.702V21H49.1625V20.062C48.7518 20.762 47.9865 21.112 46.8665 21.112C46.2878 21.112 45.7838 21.014 45.3545 20.818C44.9345 20.622 44.6125 20.3513 44.3885 20.006C44.1645 19.6607 44.0525 19.2687 44.0525 18.83C44.0525 18.13 44.3138 17.5793 44.8365 17.178C45.3685 16.7767 46.1852 16.576 47.2865 16.576H49.0225C49.0225 16.1 48.8778 15.736 48.5885 15.484C48.2992 15.2227 47.8652 15.092 47.2865 15.092C46.8852 15.092 46.4885 15.1573 46.0965 15.288C45.7138 15.4093 45.3872 15.5773 45.1165 15.792L44.3325 14.266C44.7432 13.9767 45.2332 13.7527 45.8025 13.594C46.3812 13.4353 46.9738 13.356 47.5805 13.356ZM47.4125 19.642C47.7858 19.642 48.1172 19.558 48.4065 19.39C48.6958 19.2127 48.9012 18.956 49.0225 18.62V17.85H47.5245C46.6285 17.85 46.1805 18.144 46.1805 18.732C46.1805 19.012 46.2878 19.236 46.5025 19.404C46.7265 19.5627 47.0298 19.642 47.4125 19.642ZM57.9214 17.08C58.3694 17.22 58.7147 17.4347 58.9574 17.724C59.2094 18.0133 59.3354 18.3587 59.3354 18.76C59.3354 19.236 59.172 19.656 58.8454 20.02C58.5187 20.3747 58.0707 20.65 57.5014 20.846C56.932 21.042 56.288 21.14 55.5694 21.14C54.9814 21.14 54.4027 21.0793 53.8334 20.958C53.264 20.8367 52.7367 20.6547 52.2514 20.412L52.8394 18.886C53.6327 19.2687 54.51 19.46 55.4714 19.46C55.9847 19.46 56.386 19.3853 56.6754 19.236C56.974 19.0773 57.1234 18.858 57.1234 18.578C57.1234 18.3353 57.0207 18.1533 56.8154 18.032C56.61 17.9013 56.3114 17.836 55.9194 17.836H54.3794V16.478H55.7234C56.106 16.478 56.4 16.4173 56.6054 16.296C56.8107 16.1747 56.9134 15.9973 56.9134 15.764C56.9134 15.5213 56.7827 15.3347 56.5214 15.204C56.2694 15.0733 55.9054 15.008 55.4294 15.008C54.7014 15.008 53.908 15.1807 53.0494 15.526L52.5174 14.014C53.5627 13.5567 54.58 13.328 55.5694 13.328C56.2507 13.328 56.8574 13.412 57.3894 13.58C57.9307 13.748 58.3554 13.9953 58.6634 14.322C58.9714 14.6393 59.1254 15.0127 59.1254 15.442C59.1254 15.7967 59.018 16.1187 58.8034 16.408C58.5887 16.688 58.2947 16.912 57.9214 17.08ZM63.85 13.356C65.0167 13.356 65.9127 13.636 66.538 14.196C67.1634 14.7467 67.476 15.582 67.476 16.702V21H65.432V20.062C65.0214 20.762 64.256 21.112 63.136 21.112C62.5574 21.112 62.0534 21.014 61.624 20.818C61.204 20.622 60.882 20.3513 60.658 20.006C60.434 19.6607 60.322 19.2687 60.322 18.83C60.322 18.13 60.5834 17.5793 61.106 17.178C61.638 16.7767 62.4547 16.576 63.556 16.576H65.292C65.292 16.1 65.1474 15.736 64.858 15.484C64.5687 15.2227 64.1347 15.092 63.556 15.092C63.1547 15.092 62.758 15.1573 62.366 15.288C61.9834 15.4093 61.6567 15.5773 61.386 15.792L60.602 14.266C61.0127 13.9767 61.5027 13.7527 62.072 13.594C62.6507 13.4353 63.2434 13.356 63.85 13.356ZM63.682 19.642C64.0554 19.642 64.3867 19.558 64.676 19.39C64.9654 19.2127 65.1707 18.956 65.292 18.62V17.85H63.794C62.898 17.85 62.45 18.144 62.45 18.732C62.45 19.012 62.5574 19.236 62.772 19.404C62.996 19.5627 63.2994 19.642 63.682 19.642ZM75.7012 15.26H73.1532V21H70.9832V15.26H68.4352V13.468H75.7012V15.26ZM80.9394 15.876C81.9194 15.8853 82.6708 16.1093 83.1934 16.548C83.7161 16.9773 83.9774 17.5887 83.9774 18.382C83.9774 19.2127 83.6834 19.8613 83.0954 20.328C82.5168 20.7853 81.7001 21.014 80.6454 21.014L76.8654 21V13.468H79.0354V15.876H80.9394ZM80.4494 19.46C80.8694 19.4693 81.1914 19.3807 81.4154 19.194C81.6394 19.0073 81.7514 18.7273 81.7514 18.354C81.7514 17.99 81.6394 17.724 81.4154 17.556C81.2008 17.388 80.8788 17.2993 80.4494 17.29L79.0354 17.276V19.46H80.4494ZM94.1928 17.08C94.6408 17.22 94.9862 17.4347 95.2288 17.724C95.4808 18.0133 95.6068 18.3587 95.6068 18.76C95.6068 19.236 95.4435 19.656 95.1168 20.02C94.7902 20.3747 94.3422 20.65 93.7728 20.846C93.2035 21.042 92.5595 21.14 91.8408 21.14C91.2528 21.14 90.6742 21.0793 90.1048 20.958C89.5355 20.8367 89.0082 20.6547 88.5228 20.412L89.1108 18.886C89.9042 19.2687 90.7815 19.46 91.7428 19.46C92.2562 19.46 92.6575 19.3853 92.9468 19.236C93.2455 19.0773 93.3948 18.858 93.3948 18.578C93.3948 18.3353 93.2922 18.1533 93.0868 18.032C92.8815 17.9013 92.5828 17.836 92.1908 17.836H90.6508V16.478H91.9948C92.3775 16.478 92.6715 16.4173 92.8768 16.296C93.0822 16.1747 93.1848 15.9973 93.1848 15.764C93.1848 15.5213 93.0542 15.3347 92.7928 15.204C92.5408 15.0733 92.1768 15.008 91.7008 15.008C90.9728 15.008 90.1795 15.1807 89.3208 15.526L88.7888 14.014C89.8342 13.5567 90.8515 13.328 91.8408 13.328C92.5222 13.328 93.1288 13.412 93.6608 13.58C94.2022 13.748 94.6268 13.9953 94.9348 14.322C95.2428 14.6393 95.3968 15.0127 95.3968 15.442C95.3968 15.7967 95.2895 16.1187 95.0748 16.408C94.8602 16.688 94.5662 16.912 94.1928 17.08ZM102.95 17.066C103.836 17.3647 104.28 17.962 104.28 18.858C104.28 19.5393 104.023 20.0667 103.51 20.44C102.996 20.8133 102.231 21 101.214 21H97.1955V13.468H101.046C101.988 13.468 102.726 13.6407 103.258 13.986C103.79 14.322 104.056 14.798 104.056 15.414C104.056 15.7873 103.958 16.1187 103.762 16.408C103.575 16.688 103.304 16.9073 102.95 17.066ZM99.1975 16.562H100.85C101.615 16.562 101.998 16.2913 101.998 15.75C101.998 15.218 101.615 14.952 100.85 14.952H99.1975V16.562ZM101.032 19.516C101.834 19.516 102.236 19.2407 102.236 18.69C102.236 18.4007 102.142 18.1907 101.956 18.06C101.769 17.92 101.475 17.85 101.074 17.85H99.1975V19.516H101.032ZM109.432 21.112C108.639 21.112 107.925 20.9487 107.29 20.622C106.665 20.286 106.175 19.824 105.82 19.236C105.466 18.648 105.288 17.9807 105.288 17.234C105.288 16.4873 105.466 15.82 105.82 15.232C106.175 14.644 106.665 14.1867 107.29 13.86C107.925 13.524 108.639 13.356 109.432 13.356C110.226 13.356 110.935 13.524 111.56 13.86C112.186 14.1867 112.676 14.644 113.03 15.232C113.385 15.82 113.562 16.4873 113.562 17.234C113.562 17.9807 113.385 18.648 113.03 19.236C112.676 19.824 112.186 20.286 111.56 20.622C110.935 20.9487 110.226 21.112 109.432 21.112ZM109.432 19.32C109.992 19.32 110.45 19.1333 110.804 18.76C111.168 18.3773 111.35 17.8687 111.35 17.234C111.35 16.5993 111.168 16.0953 110.804 15.722C110.45 15.3393 109.992 15.148 109.432 15.148C108.872 15.148 108.41 15.3393 108.046 15.722C107.682 16.0953 107.5 16.5993 107.5 17.234C107.5 17.8687 107.682 18.3773 108.046 18.76C108.41 19.1333 108.872 19.32 109.432 19.32ZM115.065 13.468H117.235V16.408H120.511V13.468H122.695V21H120.511V18.186H117.235V21H115.065V13.468ZM128.313 21.112C127.52 21.112 126.806 20.9487 126.171 20.622C125.546 20.286 125.056 19.824 124.701 19.236C124.347 18.648 124.169 17.9807 124.169 17.234C124.169 16.4873 124.347 15.82 124.701 15.232C125.056 14.644 125.546 14.1867 126.171 13.86C126.806 13.524 127.52 13.356 128.313 13.356C129.107 13.356 129.816 13.524 130.441 13.86C131.067 14.1867 131.557 14.644 131.911 15.232C132.266 15.82 132.443 16.4873 132.443 17.234C132.443 17.9807 132.266 18.648 131.911 19.236C131.557 19.824 131.067 20.286 130.441 20.622C129.816 20.9487 129.107 21.112 128.313 21.112ZM128.313 19.32C128.873 19.32 129.331 19.1333 129.685 18.76C130.049 18.3773 130.231 17.8687 130.231 17.234C130.231 16.5993 130.049 16.0953 129.685 15.722C129.331 15.3393 128.873 15.148 128.313 15.148C127.753 15.148 127.291 15.3393 126.927 15.722C126.563 16.0953 126.381 16.5993 126.381 17.234C126.381 17.8687 126.563 18.3773 126.927 18.76C127.291 19.1333 127.753 19.32 128.313 19.32ZM137.264 18.144H136.13V21H133.946V13.468H136.13V16.394H137.306L139.35 13.468H141.674L139.042 17.08L141.856 21H139.28L137.264 18.144Z" fill="white"/>
<defs>
<filter id="filter0_d" x="0" y="0" width="158" height="40" filterUnits="userSpaceOnUse" color-interpolation-filters="sRGB">
<feFlood flood-opacity="0" result="BackgroundImageFix"/>
<feColorMatrix in="SourceAlpha" type="matrix" values="0 0 0 0 0 0 0 0 0 0 0 0 0 0 0 0 0 0 127 0"/>
<feOffset dy="4"/>
<feGaussianBlur stdDeviation="2"/>
<feColorMatrix type="matrix" values="0 0 0 0 0 0 0 0 0 0 0 0 0 0 0 0 0 0 0.25 0"/>
<feBlend mode="normal" in2="BackgroundImageFix" result="effect1_dropShadow"/>
<feBlend mode="normal" in="SourceGraphic" in2="effect1_dropShadow" result="shape"/>
</filter>
</defs>
</svg>
