<svg width="150" height="32" viewBox="0 0 150 32" fill="none" xmlns="http://www.w3.org/2000/svg">
<rect width="150" height="32" rx="16" fill="#BE0000"/>
<path d="M19.9121 15.89C20.4814 16.086 20.9247 16.394 21.2421 16.814C21.5687 17.2247 21.7321 17.7053 21.7321 18.256C21.7321 18.8533 21.5361 19.3713 21.1441 19.81C20.7521 20.2487 20.2201 20.5847 19.5481 20.818C18.8854 21.0513 18.1574 21.168 17.3641 21.168C16.6921 21.168 16.0201 21.084 15.3481 20.916C14.6854 20.748 14.0554 20.4913 13.4581 20.146L14.1581 18.522C14.5874 18.7833 15.0587 18.984 15.5721 19.124C16.0947 19.2547 16.6034 19.32 17.0981 19.32C17.7701 19.32 18.3254 19.1987 18.7641 18.956C19.2121 18.7133 19.4361 18.3727 19.4361 17.934C19.4361 17.57 19.2821 17.2947 18.9741 17.108C18.6754 16.9213 18.2647 16.828 17.7421 16.828H15.3481V15.12H17.5741C18.0314 15.12 18.3861 15.0267 18.6381 14.84C18.8994 14.6533 19.0301 14.3967 19.0301 14.07C19.0301 13.6873 18.8434 13.3887 18.4701 13.174C18.1061 12.9593 17.6347 12.852 17.0561 12.852C16.6267 12.852 16.1834 12.9127 15.7261 13.034C15.2687 13.146 14.8347 13.3187 14.4241 13.552L13.7381 11.788C14.7741 11.256 15.8941 10.99 17.0981 10.99C17.8634 10.99 18.5681 11.102 19.2121 11.326C19.8561 11.55 20.3694 11.8767 20.7521 12.306C21.1347 12.7353 21.3261 13.2347 21.3261 13.804C21.3261 14.2707 21.2001 14.686 20.9481 15.05C20.6961 15.414 20.3507 15.694 19.9121 15.89ZM26.2856 13.356C27.4522 13.356 28.3482 13.636 28.9736 14.196C29.5989 14.7467 29.9116 15.582 29.9116 16.702V21H27.8676V20.062C27.4569 20.762 26.6916 21.112 25.5716 21.112C24.9929 21.112 24.4889 21.014 24.0596 20.818C23.6396 20.622 23.3176 20.3513 23.0936 20.006C22.8696 19.6607 22.7576 19.2687 22.7576 18.83C22.7576 18.13 23.0189 17.5793 23.5416 17.178C24.0736 16.7767 24.8902 16.576 25.9916 16.576H27.7276C27.7276 16.1 27.5829 15.736 27.2936 15.484C27.0042 15.2227 26.5702 15.092 25.9916 15.092C25.5902 15.092 25.1936 15.1573 24.8016 15.288C24.4189 15.4093 24.0922 15.5773 23.8216 15.792L23.0376 14.266C23.4482 13.9767 23.9382 13.7527 24.5076 13.594C25.0862 13.4353 25.6789 13.356 26.2856 13.356ZM26.1176 19.642C26.4909 19.642 26.8222 19.558 27.1116 19.39C27.4009 19.2127 27.6062 18.956 27.7276 18.62V17.85H26.2296C25.3336 17.85 24.8856 18.144 24.8856 18.732C24.8856 19.012 24.9929 19.236 25.2076 19.404C25.4316 19.5627 25.7349 19.642 26.1176 19.642ZM35.1268 18.144H33.9928V21H31.8088V13.468H33.9928V16.394H35.1688L37.2128 13.468H39.5368L36.9048 17.08L39.7188 21H37.1428L35.1268 18.144ZM43.5805 13.356C44.7472 13.356 45.6432 13.636 46.2685 14.196C46.8938 14.7467 47.2065 15.582 47.2065 16.702V21H45.1625V20.062C44.7518 20.762 43.9865 21.112 42.8665 21.112C42.2878 21.112 41.7838 21.014 41.3545 20.818C40.9345 20.622 40.6125 20.3513 40.3885 20.006C40.1645 19.6607 40.0525 19.2687 40.0525 18.83C40.0525 18.13 40.3138 17.5793 40.8365 17.178C41.3685 16.7767 42.1852 16.576 43.2865 16.576H45.0225C45.0225 16.1 44.8778 15.736 44.5885 15.484C44.2992 15.2227 43.8652 15.092 43.2865 15.092C42.8852 15.092 42.4885 15.1573 42.0965 15.288C41.7138 15.4093 41.3872 15.5773 41.1165 15.792L40.3325 14.266C40.7432 13.9767 41.2332 13.7527 41.8025 13.594C42.3812 13.4353 42.9738 13.356 43.5805 13.356ZM43.4125 19.642C43.7858 19.642 44.1172 19.558 44.4065 19.39C44.6958 19.2127 44.9012 18.956 45.0225 18.62V17.85H43.5245C42.6285 17.85 42.1805 18.144 42.1805 18.732C42.1805 19.012 42.2878 19.236 42.5025 19.404C42.7265 19.5627 43.0298 19.642 43.4125 19.642ZM53.9214 17.08C54.3694 17.22 54.7147 17.4347 54.9574 17.724C55.2094 18.0133 55.3354 18.3587 55.3354 18.76C55.3354 19.236 55.172 19.656 54.8454 20.02C54.5187 20.3747 54.0707 20.65 53.5014 20.846C52.932 21.042 52.288 21.14 51.5694 21.14C50.9814 21.14 50.4027 21.0793 49.8334 20.958C49.264 20.8367 48.7367 20.6547 48.2514 20.412L48.8394 18.886C49.6327 19.2687 50.51 19.46 51.4714 19.46C51.9847 19.46 52.386 19.3853 52.6754 19.236C52.974 19.0773 53.1234 18.858 53.1234 18.578C53.1234 18.3353 53.0207 18.1533 52.8154 18.032C52.61 17.9013 52.3114 17.836 51.9194 17.836H50.3794V16.478H51.7234C52.106 16.478 52.4 16.4173 52.6054 16.296C52.8107 16.1747 52.9134 15.9973 52.9134 15.764C52.9134 15.5213 52.7827 15.3347 52.5214 15.204C52.2694 15.0733 51.9054 15.008 51.4294 15.008C50.7014 15.008 49.908 15.1807 49.0494 15.526L48.5174 14.014C49.5627 13.5567 50.58 13.328 51.5694 13.328C52.2507 13.328 52.8574 13.412 53.3894 13.58C53.9307 13.748 54.3554 13.9953 54.6634 14.322C54.9714 14.6393 55.1254 15.0127 55.1254 15.442C55.1254 15.7967 55.018 16.1187 54.8034 16.408C54.5887 16.688 54.2947 16.912 53.9214 17.08ZM59.85 13.356C61.0167 13.356 61.9127 13.636 62.538 14.196C63.1634 14.7467 63.476 15.582 63.476 16.702V21H61.432V20.062C61.0214 20.762 60.256 21.112 59.136 21.112C58.5574 21.112 58.0534 21.014 57.624 20.818C57.204 20.622 56.882 20.3513 56.658 20.006C56.434 19.6607 56.322 19.2687 56.322 18.83C56.322 18.13 56.5834 17.5793 57.106 17.178C57.638 16.7767 58.4547 16.576 59.556 16.576H61.292C61.292 16.1 61.1474 15.736 60.858 15.484C60.5687 15.2227 60.1347 15.092 59.556 15.092C59.1547 15.092 58.758 15.1573 58.366 15.288C57.9834 15.4093 57.6567 15.5773 57.386 15.792L56.602 14.266C57.0127 13.9767 57.5027 13.7527 58.072 13.594C58.6507 13.4353 59.2434 13.356 59.85 13.356ZM59.682 19.642C60.0554 19.642 60.3867 19.558 60.676 19.39C60.9654 19.2127 61.1707 18.956 61.292 18.62V17.85H59.794C58.898 17.85 58.45 18.144 58.45 18.732C58.45 19.012 58.5574 19.236 58.772 19.404C58.996 19.5627 59.2994 19.642 59.682 19.642ZM71.7012 15.26H69.1532V21H66.9832V15.26H64.4352V13.468H71.7012V15.26ZM76.9394 15.876C77.9194 15.8853 78.6708 16.1093 79.1934 16.548C79.7161 16.9773 79.9774 17.5887 79.9774 18.382C79.9774 19.2127 79.6834 19.8613 79.0954 20.328C78.5168 20.7853 77.7001 21.014 76.6454 21.014L72.8654 21V13.468H75.0354V15.876H76.9394ZM76.4494 19.46C76.8694 19.4693 77.1914 19.3807 77.4154 19.194C77.6394 19.0073 77.7514 18.7273 77.7514 18.354C77.7514 17.99 77.6394 17.724 77.4154 17.556C77.2008 17.388 76.8788 17.2993 76.4494 17.29L75.0354 17.276V19.46H76.4494ZM90.1928 17.08C90.6408 17.22 90.9862 17.4347 91.2288 17.724C91.4808 18.0133 91.6068 18.3587 91.6068 18.76C91.6068 19.236 91.4435 19.656 91.1168 20.02C90.7902 20.3747 90.3422 20.65 89.7728 20.846C89.2035 21.042 88.5595 21.14 87.8408 21.14C87.2528 21.14 86.6742 21.0793 86.1048 20.958C85.5355 20.8367 85.0082 20.6547 84.5228 20.412L85.1108 18.886C85.9042 19.2687 86.7815 19.46 87.7428 19.46C88.2562 19.46 88.6575 19.3853 88.9468 19.236C89.2455 19.0773 89.3948 18.858 89.3948 18.578C89.3948 18.3353 89.2922 18.1533 89.0868 18.032C88.8815 17.9013 88.5828 17.836 88.1908 17.836H86.6508V16.478H87.9948C88.3775 16.478 88.6715 16.4173 88.8768 16.296C89.0822 16.1747 89.1848 15.9973 89.1848 15.764C89.1848 15.5213 89.0542 15.3347 88.7928 15.204C88.5408 15.0733 88.1768 15.008 87.7008 15.008C86.9728 15.008 86.1795 15.1807 85.3208 15.526L84.7888 14.014C85.8342 13.5567 86.8515 13.328 87.8408 13.328C88.5222 13.328 89.1288 13.412 89.6608 13.58C90.2022 13.748 90.6268 13.9953 90.9348 14.322C91.2428 14.6393 91.3968 15.0127 91.3968 15.442C91.3968 15.7967 91.2895 16.1187 91.0748 16.408C90.8602 16.688 90.5662 16.912 90.1928 17.08ZM98.9495 17.066C99.8362 17.3647 100.28 17.962 100.28 18.858C100.28 19.5393 100.023 20.0667 99.5095 20.44C98.9962 20.8133 98.2308 21 97.2135 21H93.1955V13.468H97.0455C97.9882 13.468 98.7255 13.6407 99.2575 13.986C99.7895 14.322 100.056 14.798 100.056 15.414C100.056 15.7873 99.9575 16.1187 99.7615 16.408C99.5748 16.688 99.3042 16.9073 98.9495 17.066ZM95.1975 16.562H96.8495C97.6148 16.562 97.9975 16.2913 97.9975 15.75C97.9975 15.218 97.6148 14.952 96.8495 14.952H95.1975V16.562ZM97.0315 19.516C97.8342 19.516 98.2355 19.2407 98.2355 18.69C98.2355 18.4007 98.1422 18.1907 97.9555 18.06C97.7688 17.92 97.4748 17.85 97.0735 17.85H95.1975V19.516H97.0315ZM105.432 21.112C104.639 21.112 103.925 20.9487 103.29 20.622C102.665 20.286 102.175 19.824 101.82 19.236C101.466 18.648 101.288 17.9807 101.288 17.234C101.288 16.4873 101.466 15.82 101.82 15.232C102.175 14.644 102.665 14.1867 103.29 13.86C103.925 13.524 104.639 13.356 105.432 13.356C106.226 13.356 106.935 13.524 107.56 13.86C108.186 14.1867 108.676 14.644 109.03 15.232C109.385 15.82 109.562 16.4873 109.562 17.234C109.562 17.9807 109.385 18.648 109.03 19.236C108.676 19.824 108.186 20.286 107.56 20.622C106.935 20.9487 106.226 21.112 105.432 21.112ZM105.432 19.32C105.992 19.32 106.45 19.1333 106.804 18.76C107.168 18.3773 107.35 17.8687 107.35 17.234C107.35 16.5993 107.168 16.0953 106.804 15.722C106.45 15.3393 105.992 15.148 105.432 15.148C104.872 15.148 104.41 15.3393 104.046 15.722C103.682 16.0953 103.5 16.5993 103.5 17.234C103.5 17.8687 103.682 18.3773 104.046 18.76C104.41 19.1333 104.872 19.32 105.432 19.32ZM111.065 13.468H113.235V16.408H116.511V13.468H118.695V21H116.511V18.186H113.235V21H111.065V13.468ZM124.313 21.112C123.52 21.112 122.806 20.9487 122.171 20.622C121.546 20.286 121.056 19.824 120.701 19.236C120.347 18.648 120.169 17.9807 120.169 17.234C120.169 16.4873 120.347 15.82 120.701 15.232C121.056 14.644 121.546 14.1867 122.171 13.86C122.806 13.524 123.52 13.356 124.313 13.356C125.107 13.356 125.816 13.524 126.441 13.86C127.067 14.1867 127.557 14.644 127.911 15.232C128.266 15.82 128.443 16.4873 128.443 17.234C128.443 17.9807 128.266 18.648 127.911 19.236C127.557 19.824 127.067 20.286 126.441 20.622C125.816 20.9487 125.107 21.112 124.313 21.112ZM124.313 19.32C124.873 19.32 125.331 19.1333 125.685 18.76C126.049 18.3773 126.231 17.8687 126.231 17.234C126.231 16.5993 126.049 16.0953 125.685 15.722C125.331 15.3393 124.873 15.148 124.313 15.148C123.753 15.148 123.291 15.3393 122.927 15.722C122.563 16.0953 122.381 16.5993 122.381 17.234C122.381 17.8687 122.563 18.3773 122.927 18.76C123.291 19.1333 123.753 19.32 124.313 19.32ZM133.264 18.144H132.13V21H129.946V13.468H132.13V16.394H133.306L135.35 13.468H137.674L135.042 17.08L137.856 21H135.28L133.264 18.144Z" fill="white"/>
</svg>
