<svg width="32" height="32" viewBox="0 0 32 32" fill="none" xmlns="http://www.w3.org/2000/svg">
<path d="M30.7427 9.77272C29.9369 7.86734 28.7835 6.15622 27.3144 4.68697C25.8453 3.21769 24.1343 2.06403 22.229 1.25803C20.2561 0.423375 18.1606 0.000125 16 0C13.8405 0 11.7452 0.423125 9.77222 1.25759C7.86694 2.06344 6.15594 3.21694 4.68675 4.68603C3.21756 6.15513 2.06397 7.86606 1.258 9.77128C0.423375 11.7442 0.000125028 13.8395 2.76937e-08 15.9991C-0.000124972 18.1587 0.422906 20.2542 1.25731 22.2273C2.06309 24.1327 3.21656 25.8438 4.68566 27.313C6.15475 28.7823 7.86572 29.936 9.77103 30.742C11.744 31.5766 13.8395 31.9999 15.9999 32H16.0002C18.1597 32 20.2549 31.5769 22.2279 30.7424C24.1332 29.9366 25.8442 28.7831 27.3133 27.314C28.7825 25.845 29.9361 24.134 30.7421 22.2288C31.5767 20.2558 31.9999 18.1605 32 16.001C32.0001 13.8413 31.5771 11.7458 30.7427 9.77272ZM16.0001 30.5103H15.9992C12.1234 30.51 8.47959 29.0005 5.73909 26.2597C2.99866 23.5189 1.48953 19.875 1.48975 15.9992C1.49022 7.99866 7.9995 1.48978 16.0009 1.48978C19.8767 1.49 23.5204 2.99953 26.2609 5.74031C29.0013 8.48112 30.5104 12.125 30.5102 16.0008C30.5098 24.0013 24.0006 30.5103 16.0001 30.5103Z" fill="#FF0000"/>
<path d="M24.3234 11.4167C24.165 11.1423 23.9382 10.9136 23.6651 10.7529C23.3919 10.5923 23.0819 10.5052 22.765 10.5H11.0317L10.5 8.42838C10.4463 8.2284 10.3265 8.0525 10.16 7.92932C9.99358 7.80615 9.79032 7.74296 9.58337 7.75005H7.75004C7.50693 7.75005 7.27377 7.84663 7.10186 8.01853C6.92995 8.19044 6.83337 8.4236 6.83337 8.66672C6.83337 8.90983 6.92995 9.14299 7.10186 9.3149C7.27377 9.48681 7.50693 9.58338 7.75004 9.58338H8.88671L11.4167 18.9884C11.4704 19.1884 11.5903 19.3643 11.7567 19.4874C11.9232 19.6106 12.1264 19.6738 12.3334 19.6667H20.5834C20.7527 19.6662 20.9185 19.6188 21.0625 19.5298C21.2065 19.4408 21.323 19.3137 21.3992 19.1625L24.4059 13.1492C24.5362 12.8761 24.5969 12.5749 24.5825 12.2726C24.5681 11.9703 24.4791 11.6762 24.3234 11.4167ZM20.015 17.8334H13.03L11.5359 12.3334H22.765L20.015 17.8334Z" fill="#FF0000"/>
<path d="M11.875 24.25C12.6344 24.25 13.25 23.6344 13.25 22.875C13.25 22.1156 12.6344 21.5 11.875 21.5C11.1156 21.5 10.5 22.1156 10.5 22.875C10.5 23.6344 11.1156 24.25 11.875 24.25Z" fill="#FF0000"/>
<path d="M21.0416 24.25C21.801 24.25 22.4166 23.6344 22.4166 22.875C22.4166 22.1156 21.801 21.5 21.0416 21.5C20.2822 21.5 19.6666 22.1156 19.6666 22.875C19.6666 23.6344 20.2822 24.25 21.0416 24.25Z" fill="#FF0000"/>
</svg>
