<svg width="32" height="32" viewBox="0 0 32 32" fill="none" xmlns="http://www.w3.org/2000/svg">
<path d="M30.7427 9.77272C29.9369 7.86734 28.7835 6.15622 27.3144 4.68697C25.8453 3.21769 24.1343 2.06403 22.229 1.25803C20.2561 0.423375 18.1606 0.000125 16 0C13.8405 0 11.7452 0.423125 9.77222 1.25759C7.86694 2.06344 6.15594 3.21694 4.68675 4.68603C3.21756 6.15513 2.06397 7.86606 1.258 9.77128C0.423375 11.7442 0.000125028 13.8395 2.76937e-08 15.9991C-0.000124972 18.1587 0.422906 20.2542 1.25731 22.2273C2.06309 24.1327 3.21656 25.8438 4.68566 27.313C6.15475 28.7823 7.86572 29.936 9.77103 30.742C11.744 31.5766 13.8395 31.9999 15.9999 32H16.0002C18.1597 32 20.2549 31.5769 22.2279 30.7424C24.1332 29.9366 25.8442 28.7831 27.3133 27.314C28.7825 25.845 29.9361 24.134 30.7421 22.2288C31.5767 20.2558 31.9999 18.1605 32 16.001C32.0001 13.8413 31.5771 11.7458 30.7427 9.77272ZM16.0001 30.5103H15.9992C12.1234 30.51 8.47959 29.0005 5.73909 26.2597C2.99866 23.5189 1.48953 19.875 1.48975 15.9992C1.49022 7.99866 7.9995 1.48978 16.0009 1.48978C19.8767 1.49 23.5204 2.99953 26.2609 5.74031C29.0013 8.48112 30.5104 12.125 30.5102 16.0008C30.5098 24.0013 24.0006 30.5103 16.0001 30.5103Z" fill="#716E6E"/>
<path d="M21.0234 9.55126V6.37157C20.9066 6.37157 20.7898 6.37136 20.6731 6.37161C20.392 6.37223 20.1108 6.37092 19.8297 6.37164C19.4868 6.37251 19.144 6.3702 18.8011 6.37167C18.499 6.37298 18.1968 6.36864 17.8947 6.37176C17.4387 6.37648 17.0059 6.39889 16.5685 6.53973C16.1469 6.67554 15.7511 6.91332 15.4139 7.19851C15.2187 7.36364 15.0379 7.54048 14.8742 7.73707C14.808 7.81873 14.7462 7.90363 14.6886 7.99145C14.5155 8.25492 14.3788 8.5447 14.2646 8.85191C14.2389 8.92107 14.2137 8.99041 14.1897 9.0601C14.0136 9.57023 14.0078 10.1271 14.0078 10.6631C14.0078 10.7303 14.0078 10.7995 14.0078 10.8703C14.0078 11.9323 14.0078 13.3481 14.0078 13.3481H10.9766V16.8481H13.8984H13.9766V25.6294H17.4453V16.77L20.5937 16.8125L21.0182 13.3711L17.4609 13.3638V10.7075C17.4609 10.7075 17.4531 9.57469 18.414 9.55907L21.0234 9.55126Z" fill="#716E6E"/>
</svg>
