<svg width="20" height="20" viewBox="0 0 20 20" fill="none" xmlns="http://www.w3.org/2000/svg">
<path fill-rule="evenodd" clip-rule="evenodd" d="M19 4H18H14V2.328C14 1.044 12.879 0 11.5 0H8.5C7.121 0 6 1.044 6 2.328V4H2H1C0.45 4 0 4.45 0 5C0 5.55 0.45 6 1 6H2V17C2 18.654 3.346 20 5 20H15C16.654 20 18 18.654 18 17V6H19C19.55 6 20 5.55 20 5C20 4.45 19.55 4 19 4Z" fill="#716E6E"/>
<path fill-rule="evenodd" clip-rule="evenodd" d="M16 17C16 17.551 15.552 18 15 18H5C4.448 18 4 17.551 4 17V6H16V17Z" fill="white"/>
<path fill-rule="evenodd" clip-rule="evenodd" d="M8 2.328C8 2.173 8.214 2 8.5 2H11.5C11.786 2 12 2.173 12 2.328V4H8V2.328Z" fill="white"/>
<path fill-rule="evenodd" clip-rule="evenodd" d="M7 15C7.55 15 8 14.55 8 14V10C8 9.45 7.55 9 7 9C6.45 9 6 9.45 6 10V14C6 14.55 6.45 15 7 15Z" fill="#716E6E"/>
<path fill-rule="evenodd" clip-rule="evenodd" d="M13 15C13.55 15 14 14.55 14 14V10C14 9.45 13.55 9 13 9C12.45 9 12 9.45 12 10V14C12 14.55 12.45 15 13 15Z" fill="#716E6E"/>
<path fill-rule="evenodd" clip-rule="evenodd" d="M10 15C10.55 15 11 14.55 11 14V10C11 9.45 10.55 9 10 9C9.45 9 9 9.45 9 10V14C9 14.55 9.45 15 10 15Z" fill="#716E6E"/>
</svg>
