<svg width="11" height="11" viewBox="0 0 11 11" fill="none" xmlns="http://www.w3.org/2000/svg">
<path d="M3.178 11C3.178 10.5427 3.22933 10.118 3.332 9.726C3.444 9.334 3.57467 9.04933 3.724 8.872C3.79867 8.77867 3.91533 8.648 4.074 8.48C4.23267 8.30267 4.43333 8.08333 4.676 7.822C4.91867 7.57 5.10533 7.35533 5.236 7.178C5.376 6.99133 5.45533 6.83733 5.474 6.716V6.254H5.418C5.40867 6.32867 5.33867 6.436 5.208 6.576C5.08667 6.716 4.93267 6.814 4.746 6.87C4.65267 6.898 4.52667 6.926 4.368 6.954C4.21867 6.97267 4.03667 6.99133 3.822 7.01C3.71 7.08467 3.58867 7.18733 3.458 7.318C3.33667 7.44867 3.206 7.60733 3.066 7.794C2.786 8.158 2.534 8.34 2.31 8.34C1.834 8.34 1.53067 8.242 1.4 8.046L0.714 6.954C0.779333 6.83267 0.844667 6.67867 0.91 6.492C0.984667 6.30533 1.064 6.09533 1.148 5.862C1.232 5.61933 1.316 5.414 1.4 5.246C1.484 5.078 1.568 4.94267 1.652 4.84C1.81067 4.63467 1.946 4.33133 2.058 3.93C2.13267 3.65933 2.20267 3.44 2.268 3.272C2.34267 3.09467 2.44533 2.94067 2.576 2.81C2.70667 2.67933 2.90267 2.544 3.164 2.404C3.332 1.88133 3.33667 1.30267 3.178 0.668H3.514C4.00867 0.854666 4.30733 1.18133 4.41 1.648L4.494 1.634C4.56867 1.466 4.606 1.09733 4.606 0.528C4.606 0.462666 4.606 0.406666 4.606 0.359999C4.606 0.313333 4.59667 0.280666 4.578 0.262H5.068C5.348 0.411333 5.572 0.639999 5.74 0.947999C5.908 1.256 5.992 1.58733 5.992 1.942C6.57067 2.10067 7.11667 2.39467 7.63 2.824C8.15267 3.25333 8.60533 3.79933 8.988 4.462C9.38 5.12467 9.66467 5.88533 9.842 6.744C9.97267 7.388 10.0707 8.05533 10.136 8.746C10.2013 9.42733 10.234 10.1367 10.234 10.874V11H3.178ZM8.358 10.062H9.282C9.282 9.334 9.24 8.62467 9.156 7.934C9.08133 7.24333 8.96 6.60867 8.792 6.03C8.624 5.45133 8.4 4.966 8.12 4.574C7.91467 4.27533 7.70467 4.014 7.49 3.79C7.27533 3.566 7.056 3.384 6.832 3.244L6.706 3.328C7.098 3.65467 7.42 4.01867 7.672 4.42C7.93333 4.812 8.12933 5.30667 8.26 5.904C8.39067 6.50133 8.456 7.276 8.456 8.228C8.456 8.57333 8.44667 8.9 8.428 9.208C8.41867 9.516 8.39533 9.80067 8.358 10.062ZM3.486 4.084C3.60733 4.084 3.724 4.03733 3.836 3.944C3.948 3.85067 4.06467 3.804 4.186 3.804L4.298 3.818V3.692L3.906 3.58C3.80333 3.54267 3.68667 3.524 3.556 3.524C3.40667 3.524 3.28067 3.552 3.178 3.608C3.08467 3.664 3.038 3.74333 3.038 3.846V3.93L3.052 4C3.12667 4.056 3.27133 4.084 3.486 4.084ZM2.086 7.094C2.114 6.96333 2.17933 6.814 2.282 6.646C2.38467 6.46867 2.52933 6.31467 2.716 6.184L2.66 6.114C2.39867 6.12333 2.184 6.19333 2.016 6.324C1.85733 6.44533 1.75467 6.59933 1.708 6.786C1.74533 6.86067 1.80133 6.93067 1.876 6.996C1.96 7.052 2.03 7.08467 2.086 7.094Z" fill="black"/>
</svg>
