<svg width="32" height="32" viewBox="0 0 32 32" fill="none" xmlns="http://www.w3.org/2000/svg">
<path d="M30.7427 9.77272C29.9369 7.86734 28.7835 6.15622 27.3144 4.68697C25.8453 3.21769 24.1343 2.06403 22.229 1.25803C20.2561 0.423375 18.1606 0.000125 16 0C13.8405 0 11.7452 0.423125 9.77222 1.25759C7.86694 2.06344 6.15594 3.21694 4.68675 4.68603C3.21756 6.15513 2.06397 7.86606 1.258 9.77128C0.423375 11.7442 0.000125028 13.8395 2.76937e-08 15.9991C-0.000124972 18.1587 0.422906 20.2542 1.25731 22.2273C2.06309 24.1327 3.21656 25.8438 4.68566 27.313C6.15475 28.7823 7.86572 29.936 9.77103 30.742C11.744 31.5766 13.8395 31.9999 15.9999 32H16.0002C18.1597 32 20.2549 31.5769 22.2279 30.7424C24.1332 29.9366 25.8442 28.7831 27.3133 27.314C28.7825 25.845 29.9361 24.134 30.7421 22.2288C31.5767 20.2558 31.9999 18.1605 32 16.001C32.0001 13.8413 31.5771 11.7458 30.7427 9.77272ZM16.0001 30.5103H15.9992C12.1234 30.51 8.47959 29.0005 5.73909 26.2597C2.99866 23.5189 1.48953 19.875 1.48975 15.9992C1.49022 7.99866 7.9995 1.48978 16.0009 1.48978C19.8767 1.49 23.5204 2.99953 26.2609 5.74031C29.0013 8.48112 30.5104 12.125 30.5102 16.0008C30.5098 24.0013 24.0006 30.5103 16.0001 30.5103Z" fill="#716E6E"/>
<path d="M20.5865 12.4281C21.1584 12.4281 21.622 11.9645 21.622 11.3926C21.622 10.8207 21.1584 10.3571 20.5865 10.3571C20.0146 10.3571 19.551 10.8207 19.551 11.3926C19.551 11.9645 20.0146 12.4281 20.5865 12.4281Z" fill="#716E6E"/>
<path d="M16.0001 20.4973C13.5202 20.4973 11.5028 18.4798 11.5028 16C11.5028 13.5202 13.5203 11.5028 16.0001 11.5028C18.4798 11.5028 20.4973 13.5203 20.4973 16C20.4973 18.4798 18.4799 20.4973 16.0001 20.4973ZM16.0001 12.909C14.2957 12.909 12.9091 14.2957 12.9091 16C12.9091 17.7044 14.2957 19.091 16.0001 19.091C17.7045 19.091 19.0911 17.7044 19.0911 16C19.0911 14.2957 17.7045 12.909 16.0001 12.909Z" fill="#716E6E"/>
<path d="M18.8639 25.0002H13.1362C9.90532 25.0002 7.27686 22.3717 7.27686 19.1408V12.8593C7.27686 9.62838 9.90536 6.99988 13.1362 6.99988H18.8638C22.0947 6.99988 24.7232 9.62838 24.7232 12.8593V19.1408C24.7233 22.3717 22.0947 25.0002 18.8639 25.0002ZM13.1362 8.40613C10.6808 8.40613 8.68311 10.4038 8.68311 12.8593V19.1408C8.68311 21.5963 10.6808 23.594 13.1362 23.594H18.8638C21.3193 23.594 23.3169 21.5963 23.3169 19.1408V12.8593C23.3169 10.4038 21.3193 8.40613 18.8638 8.40613H13.1362Z" fill="#716E6E"/>
</svg>
