<svg width="23" height="24" viewBox="0 0 23 24" fill="none" xmlns="http://www.w3.org/2000/svg">
<path d="M12.1038 18.78L17.8538 14C17.9522 13.9175 18.0341 13.8155 18.0946 13.6998C18.1551 13.5842 18.1932 13.4572 18.2065 13.3262C18.2199 13.1951 18.2083 13.0627 18.1724 12.9363C18.1366 12.81 18.0771 12.6923 17.9975 12.59C17.9184 12.4873 17.8207 12.4019 17.7098 12.3387C17.599 12.2755 17.4773 12.2358 17.3518 12.2219C17.2262 12.2079 17.0992 12.22 16.9782 12.2575C16.8571 12.2949 16.7443 12.3569 16.6463 12.44L11.5 16.71L6.35376 12.23C6.25692 12.1458 6.14511 12.0823 6.02474 12.0433C5.90437 12.0043 5.77781 11.9904 5.65229 12.0025C5.52677 12.0145 5.40476 12.0523 5.29327 12.1137C5.18177 12.175 5.08296 12.2587 5.00251 12.36C4.86308 12.5413 4.78854 12.7676 4.79168 13C4.79145 13.1469 4.82224 13.2921 4.88187 13.4251C4.9415 13.5582 5.0285 13.676 5.13668 13.77L10.8867 18.77C11.057 18.9185 11.2715 19.0007 11.4935 19.0025C11.7155 19.0043 11.9312 18.9257 12.1038 18.78Z" fill="#FF0000"/>
<path d="M17.8537 6.99999C18.0583 6.8329 18.191 6.58785 18.2224 6.31873C18.2539 6.04962 18.1816 5.77849 18.0214 5.56499C17.8613 5.35149 17.6265 5.21311 17.3686 5.18029C17.1107 5.14747 16.8508 5.2229 16.6462 5.38999L11.5 9.70999L6.36332 5.22999C6.26648 5.14579 6.15468 5.08235 6.03431 5.0433C5.91394 5.00426 5.78737 4.99038 5.66185 5.00245C5.53633 5.01453 5.41433 5.05233 5.30283 5.11368C5.19133 5.17503 5.09252 5.25873 5.01207 5.35999C4.8692 5.5399 4.79122 5.76634 4.79165 5.99999C4.79142 6.1469 4.82222 6.29206 4.88185 6.42514C4.94148 6.55823 5.02847 6.67597 5.13665 6.76999L10.8867 11.77C11.0581 11.9171 11.2732 11.9975 11.4952 11.9975C11.7172 11.9975 11.9323 11.9171 12.1037 11.77L17.8537 6.99999Z" fill="#FF0000"/>
</svg>
