<svg width="20" height="20" viewBox="0 0 20 20" fill="none" xmlns="http://www.w3.org/2000/svg">
<rect width="20" height="20" fill="#FF0000"/>
<path d="M16.7818 9.38205L12.0018 3.39157C11.9192 3.289 11.8172 3.20373 11.7016 3.14066C11.586 3.07759 11.459 3.03795 11.3279 3.02403C11.1969 3.01012 11.0644 3.02219 10.9381 3.05956C10.8117 3.09694 10.694 3.15887 10.5918 3.2418C10.489 3.3242 10.4036 3.42605 10.3405 3.5415C10.2773 3.65695 10.2376 3.78373 10.2236 3.91455C10.2097 4.04537 10.2218 4.17766 10.2592 4.30379C10.2967 4.42993 10.3587 4.54744 10.4418 4.64957L14.7118 10.0111L10.2318 15.3725C10.1476 15.4734 10.0841 15.5899 10.0451 15.7153C10.006 15.8407 9.99215 15.9726 10.0042 16.1034C10.0163 16.2341 10.0541 16.3612 10.1154 16.4774C10.1768 16.5936 10.2605 16.6965 10.3618 16.7803C10.543 16.9256 10.7693 17.0032 11.0018 17C11.1487 17.0002 11.2938 16.9681 11.4269 16.906C11.56 16.8439 11.6777 16.7532 11.7718 16.6405L16.7718 10.65C16.9203 10.4725 17.0024 10.2491 17.0043 10.0178C17.0061 9.78658 16.9274 9.56186 16.7818 9.38205Z" fill="white"/>
<path d="M5.00176 3.3916C4.83467 3.17844 4.58962 3.04028 4.3205 3.00751C4.05139 2.97474 3.78026 3.05005 3.56676 3.21688C3.35326 3.3837 3.21488 3.62836 3.18206 3.89705C3.14924 4.16574 3.22467 4.43644 3.39176 4.6496L7.71176 10.0111L3.23176 15.3626C3.14756 15.4635 3.08412 15.58 3.04507 15.7054C3.00603 15.8308 2.99215 15.9626 3.00422 16.0934C3.0163 16.2242 3.0541 16.3513 3.11545 16.4674C3.1768 16.5836 3.2605 16.6865 3.36176 16.7704C3.54167 16.9192 3.76811 17.0004 4.00176 17C4.14867 17.0002 4.29383 16.9681 4.42691 16.906C4.56 16.8439 4.67774 16.7533 4.77176 16.6406L9.77176 10.6501C9.91884 10.4714 9.99925 10.2473 9.99925 10.0161C9.99925 9.78482 9.91884 9.56073 9.77176 9.38208L5.00176 3.3916Z" fill="white"/>
</svg>
