<svg width="16" height="15" viewBox="0 0 16 15" fill="none" xmlns="http://www.w3.org/2000/svg">
<path d="M14.7801 7.36994L10.0001 1.36994C9.91753 1.26722 9.81552 1.18181 9.69988 1.11864C9.58424 1.05546 9.45726 1.01577 9.32623 1.00183C9.1952 0.987888 9.06271 0.999982 8.93637 1.03741C8.81003 1.07485 8.69234 1.13688 8.59005 1.21994C8.48732 1.30246 8.40192 1.40448 8.33875 1.52011C8.27557 1.63575 8.23588 1.76273 8.22194 1.89376C8.208 2.02479 8.22009 2.15728 8.25752 2.28362C8.29495 2.40996 8.35698 2.52765 8.44005 2.62994L12.7101 7.99994L8.23005 13.3699C8.14585 13.471 8.08241 13.5877 8.04337 13.7133C8.00432 13.8389 7.99044 13.9709 8.00251 14.1019C8.01459 14.2329 8.05239 14.3602 8.11374 14.4765C8.17509 14.5929 8.25879 14.696 8.36005 14.7799C8.54133 14.9254 8.76763 15.0032 9.00005 14.9999C9.14696 15.0002 9.29212 14.968 9.4252 14.9058C9.55829 14.8436 9.67603 14.7528 9.77005 14.6399L14.7701 8.63994C14.9185 8.46217 15.0007 8.23836 15.0025 8.00673C15.0044 7.77511 14.9257 7.55003 14.7801 7.36994Z" fill="white"/>
<path d="M3.00005 1.37C2.83297 1.1565 2.58791 1.01812 2.3188 0.985305C2.04968 0.952486 1.77855 1.02792 1.56505 1.195C1.35155 1.36209 1.21317 1.60714 1.18035 1.87626C1.14753 2.14537 1.22297 2.4165 1.39005 2.63L5.71005 8L1.23005 13.36C1.14585 13.4611 1.08241 13.5777 1.04337 13.7033C1.00432 13.8289 0.990439 13.961 1.00251 14.092C1.01459 14.223 1.05239 14.3503 1.11374 14.4666C1.17509 14.583 1.25879 14.6861 1.36005 14.77C1.53996 14.9191 1.7664 15.0005 2.00005 15C2.14696 15.0002 2.29212 14.9681 2.4252 14.9059C2.55829 14.8437 2.67603 14.7529 2.77005 14.64L7.77005 8.64C7.91713 8.46107 7.99754 8.23663 7.99754 8.005C7.99754 7.77338 7.91713 7.54894 7.77005 7.37L3.00005 1.37Z" fill="white"/>
</svg>
