<svg width="142" height="42" viewBox="0 0 142 42" fill="none" xmlns="http://www.w3.org/2000/svg">
<path d="M118.681 41.0511H99.2119L106.44 12.8834H99.2701L100.086 9.77964L108.422 0H129.232L128.299 3.68933L127.716 3.5722L128.474 0.585607H108.713L100.611 10.0139L100.028 12.2978H107.198L99.9696 40.4655H118.215L122.47 24.0685L122.995 24.1856L118.681 41.0511Z" fill="#E30613"/>
<path fill-rule="evenodd" clip-rule="evenodd" d="M141.939 13.6446C141.764 13.1176 141.356 12.7077 141.123 12.2392C140.715 11.3608 140.482 10.4824 140.016 9.60396C139.724 9.07691 139.258 8.66699 138.908 8.13994C138.966 8.13994 139.083 8.13994 139.2 8.1985C139.258 7.96426 139.141 7.61289 138.792 7.49577C138.675 7.49577 138.558 7.49577 138.442 7.49577C138.617 7.26153 138.733 7.08585 138.675 6.67592C138.617 6.67592 138.558 6.67592 138.5 6.67592C138.617 6.32456 138.792 5.91463 139.141 5.62183C138.85 5.68039 138.558 5.79751 138.267 5.85607C138.325 5.68039 138.384 5.44615 138.267 5.27047C138.209 5.15334 138.092 4.9191 137.917 4.86054C137.393 4.68486 137.218 4.6263 136.635 4.56774C136.46 4.56774 136.227 4.68486 136.285 4.68486C136.518 4.9191 136.926 4.97766 136.985 5.27047C137.043 5.50471 136.577 5.79751 136.46 5.73895C136.402 5.73895 136.285 4.9191 136.11 4.6263C135.76 4.09925 135.236 4.09925 134.536 4.09925C134.42 4.09925 134.245 4.15781 134.245 4.27493C134.187 4.45062 134.42 4.68486 134.245 4.80198C134.07 4.9191 133.953 4.50918 133.429 4.27493C133.312 4.21637 133.137 4.21637 133.079 4.27493C132.904 4.39205 132.846 4.6263 132.671 4.80198C132.613 4.86054 132.554 4.80198 132.438 4.86054C131.68 5.2119 130.981 5.56327 130.223 5.91463C130.106 5.97319 129.931 5.97319 129.815 5.97319C129.407 5.97319 129.057 5.79751 128.649 5.91463C127.891 6.09032 127.25 6.32456 126.609 6.67592C126.376 6.79304 126.142 7.20297 126.026 7.43721C125.909 7.84714 125.909 8.25706 125.851 8.72555C125.851 8.90123 125.676 9.13547 125.501 9.25259C125.326 9.36972 125.093 9.31115 124.918 9.42828C124.743 9.5454 124.569 9.72108 124.452 9.89676C124.219 10.3652 124.16 10.8923 123.927 11.3608C123.811 11.595 123.519 11.7121 123.403 11.9464C123.286 12.1806 123.694 13.2347 123.811 13.469C123.752 13.469 123.636 13.5275 123.578 13.5275C123.403 14.0546 123.344 14.7573 123.519 15.6357C123.636 16.397 123.752 17.861 124.277 18.5638C122.295 19.6764 121.829 19.8521 119.73 19.5007C119.031 18.9151 118.39 17.8025 118.215 16.9241C118.04 16.1042 118.156 15.46 118.273 14.8159C116.932 15.1672 115.533 15.7528 114.659 16.1042C114.251 16.2799 113.726 16.6898 113.61 16.8069C113.493 16.924 113.493 16.924 113.318 17.0997C113.085 17.4511 112.677 17.6853 112.036 17.6268C111.57 17.6268 111.278 17.5682 110.87 17.334C110.345 17.0412 109.996 16.5727 109.588 16.1628C109.296 15.9285 109.005 15.6943 108.713 15.5772C108.538 15.5186 108.247 15.5186 108.072 15.6357C107.373 15.9871 106.79 16.5727 106.615 17.6268C106.556 18.0953 106.498 18.6223 106.556 19.0322C106.673 19.6764 106.965 20.262 107.314 20.7891C107.606 21.2575 108.014 21.5503 108.422 21.9017C108.48 21.9603 108.597 22.0188 108.713 22.0188C108.83 22.0188 109.005 21.8431 109.063 21.9603C109.471 22.663 110.054 23.0729 110.928 23.3072C109.996 22.3702 109.18 21.3747 108.772 19.9692C108.655 19.5593 108.713 19.325 108.946 19.0908C109.063 18.9737 109.005 18.6809 109.18 18.6223C109.354 18.5052 109.646 18.4466 109.879 18.5052C110.404 18.5638 110.812 18.798 111.336 18.798C111.861 18.798 112.269 18.6223 112.502 18.5052C112.444 18.9151 112.269 19.3836 112.269 19.7935C112.269 20.3206 112.327 20.7891 112.444 21.3161C112.677 22.0774 113.143 22.663 113.435 23.3657C113.493 23.4829 113.493 23.7171 113.377 23.7757C113.202 23.8928 112.969 23.7757 112.735 23.8342C112.677 23.8342 112.561 23.9513 112.561 24.0099C112.502 24.1856 112.619 24.4198 112.502 24.5369C112.386 24.7126 112.152 24.8297 111.919 24.9469C111.744 25.0054 111.511 24.8883 111.336 25.0054C111.22 25.064 111.22 25.1811 111.162 25.2982C111.103 25.6496 111.22 26.001 111.22 26.3523C111.511 27.8749 111.744 29.3389 112.036 30.8615C112.094 31.1543 112.094 31.4471 112.036 31.6814C111.861 31.7985 111.686 31.7399 111.511 31.5057C111.162 32.2084 110.812 32.9111 110.52 33.6139C111.628 33.9067 112.677 33.731 113.435 32.267C113.435 32.3841 113.377 32.5012 113.493 32.6183C115.3 31.7399 114.892 30.7444 114.484 29.6903C114.426 29.5146 114.368 29.3975 114.309 29.2218C114.193 28.3434 114.193 27.4064 114.193 26.528C113.901 26.528 113.668 26.6451 113.435 26.6451C113.202 26.7037 112.91 27.0551 112.91 27.5235C113.085 28.8119 113.668 30.8029 113.318 30.8029C112.91 30.8029 112.91 29.6903 112.735 28.8119C112.677 27.9335 112.677 26.9965 113.202 26.6451C113.61 26.3523 114.076 26.4109 114.542 26.3523C114.892 26.2352 115.358 26.0595 115.767 25.9424C116.291 25.7667 116.699 25.6496 117.282 25.4739C117.807 25.2982 118.156 24.9469 118.331 24.3613C118.681 23.3072 118.565 21.7846 119.73 21.2575C121.537 20.4377 122.995 21.0819 124.569 21.3161C125.035 21.3747 125.618 21.3747 126.084 21.3747C127.308 21.2575 127.833 21.1404 128.765 20.5548C128.299 18.5638 128.824 17.9196 129.174 17.2169C128.999 17.7439 128.765 18.4466 128.94 19.4422C128.999 19.7935 129.115 20.0863 129.174 20.4377C129.582 20.3791 130.106 20.4377 130.456 20.262C131.272 19.9106 131.913 19.3836 132.613 18.798C133.137 18.3881 133.545 17.9781 134.07 17.7439C134.245 17.6853 134.303 17.9196 134.361 18.0953C134.42 18.4466 134.478 18.798 134.42 19.1494C134.42 19.2665 134.303 19.3836 134.245 19.5593C134.245 19.6764 134.303 19.7935 134.245 19.8521C134.187 19.9692 134.07 20.0863 133.895 20.1449C133.779 20.1449 133.604 19.9692 133.604 20.0278C133.487 21.1404 133.545 22.3116 133.487 23.4243C133.487 23.6585 133.545 23.8342 133.545 24.0685C134.303 23.6 135.061 23.1315 135.411 21.8431C135.469 21.6089 135.527 21.3161 135.586 21.0819C135.586 20.3791 135.586 19.6764 135.586 18.9737C135.702 18.6809 135.819 18.4466 135.877 18.2124C135.935 17.9196 135.935 17.6268 135.994 17.334C136.052 17.0997 136.227 16.8655 136.285 16.6312C136.343 16.3384 136.343 15.9871 136.285 15.6943C136.168 15.4015 136.052 15.1672 135.76 14.9915C135.527 14.8159 135.236 14.8159 134.944 14.8744C134.187 14.8744 133.429 15.1672 132.671 15.0501C131.972 14.933 131.972 13.8203 132.263 13.3518C132.962 12.1806 133.429 11.1265 135.819 10.7166C135.702 11.0094 135.76 11.3022 135.819 11.6536C135.819 11.8293 135.994 12.0635 136.11 12.1806C136.402 12.4734 136.693 12.6491 137.101 12.7662C137.684 13.0005 138.034 13.059 138.617 13.2933C139.083 13.6446 139.433 13.996 139.491 14.1717C139.608 14.4059 139.724 14.6987 139.899 14.933C140.016 15.1087 140.191 15.2843 140.424 15.4015C140.482 15.46 140.948 15.4015 141.007 15.3429C141.182 15.2258 140.832 14.9915 141.065 14.6987C141.182 14.6987 141.473 14.8744 141.59 14.8159C141.706 14.7573 141.823 14.6987 141.823 14.5816C141.998 14.1131 142.056 13.8789 141.939 13.6446ZM132.38 15.7528C133.196 15.7528 134.07 15.5772 134.886 15.6943C135.586 15.7528 135.644 16.397 135.586 16.8655C135.352 16.397 135.178 16.1042 134.828 16.0456C133.895 15.8114 133.079 16.0456 132.146 16.0456C132.146 15.5186 132.088 15.2258 131.913 14.6987C132.205 15.0501 132.321 15.3429 132.38 15.7528ZM129.756 8.72555C128.532 9.60396 128.008 10.8923 126.9 11.8878C125.851 12.7662 124.977 12.7662 124.335 12.8248C125.268 12.4149 126.142 12.0635 126.784 11.1851C127.541 10.131 128.124 9.07691 129.174 8.43274C130.631 7.55433 132.321 6.96873 134.012 6.8516C132.496 7.26153 131.039 7.84714 129.756 8.72555Z" fill="#E30613"/>
<path fill-rule="evenodd" clip-rule="evenodd" d="M123.752 13.3518L123.811 13.2347L123.694 13.2933C123.636 13.2933 123.578 13.3518 123.519 13.3518C122.703 13.6446 122.062 13.8789 121.246 13.996C120.488 14.1131 118.448 14.1717 118.448 14.1717C118.448 14.1717 118.273 14.7573 118.157 15.4014C118.04 16.0456 118.04 16.6312 118.331 17.5096C118.623 18.388 119.206 19.0908 119.672 19.5007C119.672 19.5007 120.43 19.6178 121.013 19.6764C121.363 19.6764 122.004 19.6764 122.528 19.5007C123.344 19.1493 124.394 18.6223 124.394 18.6223C124.394 18.6223 122.878 15.6942 123.752 13.3518ZM122.12 19.2665C121.887 19.325 121.596 19.325 121.246 19.325C120.838 19.325 120.43 19.2665 119.905 19.1493C119.439 18.7394 118.914 18.2124 118.623 17.5096C118.157 16.397 118.331 15.46 118.565 14.2888C119.73 14.3474 120.605 14.2888 121.304 14.1131C122.12 13.9374 123.578 13.4104 123.578 13.4104C122.995 14.4059 123.403 17.2168 124.219 18.5052C123.286 19.0908 122.762 19.1493 122.12 19.2665Z" fill="#E30613"/>
<path d="M88.1365 41.0511H83.4732L80.5003 33.0868L78.5184 41.0511H73.9134L77.5857 26.0595H82.2491L85.2219 34.0238L87.2038 26.0595H91.8088L88.1365 41.0511ZM83.8229 40.4655H87.6701L91.051 26.6451H87.6118L85.3385 35.9563L81.841 26.6451H77.9938L74.6129 40.4655H78.0521L80.3254 31.1543L83.8229 40.4655ZM98.3957 36.9518H91.051L91.6922 34.3166H99.0369L98.3957 36.9518ZM91.8671 36.3662H97.9877L98.3375 34.9022H92.2169L91.8671 36.3662ZM96.5304 34.0823H94.4902C93.4993 34.0823 92.7998 33.8481 92.3334 33.321C91.8671 32.794 91.8088 32.0913 92.042 31.1543L92.6249 28.6947C92.8581 27.8163 93.2661 27.1136 93.9073 26.6451C94.5485 26.1766 95.3646 25.9424 96.2973 25.9424H98.3375C99.3284 25.9424 100.028 26.1766 100.494 26.7037C100.961 27.2307 101.019 27.9335 100.786 28.8704L100.203 31.33C99.9696 32.2084 99.5616 32.9111 98.9204 33.3796C98.3375 33.8481 97.5214 34.0823 96.5304 34.0823ZM96.4138 26.4694C95.5978 26.4694 94.8983 26.7037 94.3736 27.055C93.849 27.465 93.4993 28.0506 93.2661 28.8119L92.6832 31.2714C92.5083 32.0327 92.5666 32.5598 92.8581 32.9111C93.1495 33.2625 93.7324 33.4967 94.5485 33.4967H96.5887C97.4048 33.4967 98.1043 33.2625 98.6289 32.9111C99.1535 32.5012 99.5033 31.9156 99.7364 31.1543L100.319 28.6947C100.494 27.992 100.436 27.4064 100.144 27.055C99.853 26.7037 99.2701 26.4694 98.454 26.4694H96.4138ZM96.3555 32.2084H95.6561C95.3063 32.2084 95.0148 32.0913 94.8983 31.9156C94.7234 31.7399 94.7234 31.4471 94.7817 31.1543L95.3646 28.6947C95.5395 28.1091 95.9475 27.7578 96.5887 27.7578H97.2882C97.638 27.7578 97.9294 27.8749 98.046 28.0506C98.2209 28.2263 98.2209 28.5191 98.1626 28.8119L97.5797 31.2714C97.4048 31.9156 96.9967 32.2084 96.3555 32.2084ZM96.647 28.3434C96.239 28.3434 96.0641 28.5191 95.9475 28.8119L95.3646 31.2714C95.3063 31.3885 95.3063 31.5057 95.3646 31.5642C95.4229 31.6228 95.4812 31.6228 95.7143 31.6228H96.4138C96.8219 31.6228 96.9968 31.4471 97.1133 31.1543L97.6962 28.6947C97.7545 28.5776 97.7545 28.4605 97.6962 28.4019C97.638 28.3434 97.5797 28.3434 97.3465 28.3434H96.647Z" fill="#E30613"/>
<path d="M13.5819 0.995522L11.8914 9.60395H10.0261L11.017 4.4506L7.75273 8.66698H6.87836L5.12962 4.39204L4.08038 9.60395H2.21506L3.90551 0.995522H5.53766L7.69444 6.38311L11.8914 0.995522H13.5819Z" fill="white"/>
<path d="M17.3708 2.63521L16.9628 4.50916H20.9266L20.6351 6.03174H16.6713L16.2633 8.0228H20.9266L20.5768 9.60394H13.9899L15.6804 0.995514H22.1507L21.801 2.57665H17.3708V2.63521Z" fill="white"/>
<path d="M31.827 0.995514L30.1366 9.60394H28.1547L28.8542 6.0903H24.9486L24.2491 9.60394H22.209L23.9577 0.995514H25.9396L25.2401 4.39204H29.1456L29.8451 0.995514H31.827Z" fill="white"/>
<path d="M35.616 2.63521L35.2662 4.50916H39.23L38.9386 6.03174H34.9748L34.5667 8.0228H39.23L38.8803 9.60394H32.2351L33.9255 0.995514H40.3959L40.0461 2.57665H35.616V2.63521Z" fill="white"/>
<path d="M48.4401 8.02281H49.6642L48.9647 11.4193H47.1577L47.5074 9.66251H41.4451L41.0954 11.4193H39.23L39.9295 8.02281H40.1627C40.6873 8.02281 41.1537 7.61288 41.5617 6.8516C41.9697 6.09031 42.3195 5.03621 42.6109 3.68932L43.2521 1.05408H49.8391L48.4401 8.02281ZM43.5436 6.50023C43.3104 7.1444 43.019 7.67145 42.7275 8.02281H46.4582L47.5074 2.63522H44.5928L44.3014 3.98212C44.0682 4.97765 43.7768 5.85606 43.5436 6.50023Z" fill="white"/>
<path d="M60.9727 5.15333L62.6631 9.60394H60.3897L59.1656 6.14886H57.8832L57.1837 9.60394H55.2601L55.9596 6.14886H54.7355L52.1124 9.60394H49.7807L53.2782 5.0362L51.7043 0.995514H53.6862L54.9104 4.4506H56.2511L56.9506 0.995514H58.8742L58.1747 4.4506H59.4571L62.0802 0.995514H64.237L60.9727 5.15333Z" fill="white"/>
<path d="M74.9043 0.995514L73.2139 9.60394H71.3486L72.3395 4.4506L69.0752 8.66697H68.2008L66.4521 4.39204L65.4029 9.60394H63.5958L65.2863 0.995514H66.9184L69.0752 6.3831L73.2722 0.995514H74.9043Z" fill="white"/>
<path d="M78.6932 2.63521L78.3435 4.50916H82.3073L82.0158 6.03174H78.052L77.644 8.0228H82.3073L81.9576 9.60394H75.3123L77.0028 0.995514H83.4731L83.1234 2.57665H78.6932V2.63521Z" fill="white"/>
<path d="M93.1495 0.995514L91.459 9.60394H89.4771L90.1766 6.0903H86.2711L85.5716 9.60394H83.5897L85.2802 0.995514H87.2621L86.5626 4.39204H90.4681L91.1676 0.995514H93.1495Z" fill="white"/>
<path d="M101.543 2.63521H98.8038L97.4048 9.60394H95.4229L96.8219 2.63521H94.1405L94.4319 0.995514H101.835L101.543 2.63521Z" fill="white"/>
<path d="M12.4161 13.6446L10.5507 23.0729H8.51053L9.61807 17.4511L6.004 22.0774H5.01305L3.08944 17.3925L1.9819 23.0729H0L1.86532 13.6446H3.61406L5.94571 19.5007L10.4924 13.6446H12.4161Z" fill="white"/>
<path d="M15.3306 22.7215C14.6311 22.3702 14.1065 21.9017 13.7568 21.2575C13.407 20.6134 13.2321 19.9106 13.2321 19.0908C13.2321 18.0367 13.4653 17.0411 13.9899 16.2213C14.4563 15.3429 15.1558 14.6987 16.0301 14.1717C16.9045 13.7032 17.8955 13.4104 19.0613 13.4104C19.9939 13.4104 20.81 13.5861 21.5095 13.9374C22.209 14.2888 22.7336 14.7573 23.0834 15.4014C23.4331 16.0456 23.608 16.7483 23.608 17.5682C23.608 18.6223 23.3748 19.6178 22.8502 20.4377C22.3839 21.3161 21.6844 21.9603 20.81 22.4873C19.9356 22.9558 18.9447 23.2486 17.7789 23.2486C16.7879 23.2486 16.0301 23.0729 15.3306 22.7215ZM19.7608 20.9062C20.2854 20.5548 20.6934 20.1449 20.9266 19.5593C21.2181 18.9737 21.3346 18.388 21.3346 17.6853C21.3346 16.9826 21.1015 16.397 20.6934 15.9871C20.2271 15.5771 19.6442 15.3429 18.8281 15.3429C18.1286 15.3429 17.5457 15.5186 17.0211 15.8699C16.4965 16.2213 16.0884 16.6312 15.8553 17.2168C15.5638 17.8024 15.4472 18.388 15.4472 19.0908C15.4472 19.7935 15.6804 20.3791 16.0884 20.789C16.5548 21.199 17.1377 21.4332 17.9537 21.4332C18.6532 21.3746 19.2362 21.2575 19.7608 20.9062Z" fill="white"/>
<path d="M35.2662 18.2124L37.0733 23.0729H34.625L33.2843 19.2665H31.8853L31.1276 23.0729H28.9708L29.7286 19.2665H28.3879L25.5316 23.0729H22.9668L26.814 18.0952L25.1235 13.6446H27.3386L28.6793 17.4511H30.1366L30.8944 13.6446H33.0512L32.2934 17.4511H33.6924L36.5486 13.6446H38.8803L35.2662 18.2124Z" fill="white"/>
<path d="M41.7949 15.4015L41.3868 17.4511H45.7587L45.4089 19.1493H41.0371L40.6291 21.3161H45.7587L45.4089 23.0729H38.1225L39.9878 13.6446H47.0994L46.7496 15.4015H41.7949Z" fill="white"/>
<path d="M57.6501 13.6446L55.7848 23.0729H53.628L54.3858 19.2079H50.1305L49.3727 23.0729H47.216L49.023 13.6446H51.1798L50.422 17.334H54.6773L55.435 13.6446H57.6501Z" fill="white"/>
<path d="M64.4702 18.2709L66.6853 23.0729H64.3536L62.6632 19.2665H61.0893L60.3315 23.0729H58.1747L60.0401 13.6446H62.1968L61.4391 17.4511H62.8963L66.1024 13.6446H68.5506L64.4702 18.2709Z" fill="white"/>
<path d="M70.0661 22.7215C69.3666 22.3702 68.842 21.9017 68.4923 21.2575C68.1425 20.6134 67.9677 19.9106 67.9677 19.0908C67.9677 18.0367 68.2008 17.0411 68.7254 16.2213C69.1918 15.3429 69.8913 14.6987 70.7656 14.1717C71.64 13.7032 72.631 13.4104 73.7968 13.4104C74.7294 13.4104 75.5455 13.5861 76.245 13.9374C76.9445 14.2888 77.4691 14.7573 77.8189 15.4014C78.1686 16.0456 78.3435 16.7483 78.3435 17.5682C78.3435 18.6223 78.1103 19.6178 77.5857 20.4377C77.1194 21.3161 76.4199 21.9603 75.5455 22.4873C74.6712 22.9558 73.6802 23.2486 72.5144 23.2486C71.5817 23.2486 70.7656 23.0729 70.0661 22.7215ZM74.4963 20.9062C75.0209 20.5548 75.4289 20.1449 75.6621 19.5593C75.9536 18.9737 76.0701 18.388 76.0701 17.6853C76.0701 16.9826 75.837 16.397 75.4289 15.9871C74.9626 15.5771 74.3797 15.3429 73.5636 15.3429C72.8641 15.3429 72.2812 15.5186 71.7566 15.8699C71.232 16.2213 70.8239 16.6312 70.5908 17.2168C70.2993 17.8024 70.1827 18.388 70.1827 19.0908C70.1827 19.7935 70.4159 20.3791 70.8239 20.789C71.2903 21.199 71.8732 21.4332 72.6893 21.4332C73.3887 21.3746 73.9717 21.2575 74.4963 20.9062Z" fill="white"/>
<path d="M87.7867 18.9737C88.0199 19.2665 88.1365 19.6764 88.1365 20.1449C88.1365 21.1404 87.7284 21.8431 86.9706 22.3702C86.2128 22.8972 85.1636 23.1315 83.8812 23.1315H78.9847L80.85 13.7032H85.3968C86.3877 13.7032 87.2038 13.8789 87.7284 14.2888C88.253 14.6402 88.5445 15.1672 88.5445 15.8699C88.5445 16.4555 88.3696 16.924 88.0782 17.334C87.7867 17.7439 87.3787 18.0367 86.854 18.2709C87.2621 18.388 87.5535 18.6223 87.7867 18.9737ZM85.455 21.0818C85.8048 20.8476 85.9797 20.4962 85.9797 20.0863C85.9797 19.4421 85.5133 19.0908 84.5807 19.0908H81.9576L81.4912 21.4332H84.0561C84.639 21.4332 85.1053 21.3161 85.455 21.0818ZM82.6571 15.2843L82.1907 17.5096H84.4058C84.9887 17.5096 85.3968 17.3925 85.7465 17.1583C86.038 16.924 86.2128 16.5727 86.2128 16.1627C86.2128 15.5771 85.7465 15.2843 84.8138 15.2843H82.6571Z" fill="white"/>
<path d="M96.1224 21.0818H91.7505L90.5264 23.1315H88.1947L94.257 13.7032H96.4138L98.7455 23.1315H96.5887L96.1224 21.0818ZM95.7726 19.4421L94.9565 15.8114L92.7415 19.4421H95.7726Z" fill="white"/>
</svg>
