<svg width="123" height="26" viewBox="0 0 123 26" fill="none" xmlns="http://www.w3.org/2000/svg">
<path d="M11.8319 4.57555V7.22852C11.8319 7.51547 11.8229 7.51547 11.8055 7.83688C11.9461 7.52371 12.0852 7.3409 12.2251 7.1506L13.8952 4.95915V4.57555H14.5612V8.99666H13.8952V6.38715C13.8952 6.23206 13.9057 5.96534 13.9314 5.75556C13.8952 5.83423 13.8339 5.98182 13.5292 6.37291L11.8327 8.57186V8.99666H11.1689V4.57555H11.8319ZM15.3747 5.70387C15.4219 5.48289 15.5209 5.27601 15.6637 5.09992C15.8064 4.92383 15.9889 4.78348 16.1965 4.69018C16.3553 4.61226 16.6857 4.49014 17.2383 4.49014C17.6141 4.49014 18.0602 4.54108 18.3747 4.73213C18.7943 4.98387 18.9258 5.36597 18.9258 5.67839C18.9275 5.8086 18.9028 5.93781 18.8532 6.05839C18.8036 6.17897 18.7301 6.28846 18.637 6.38041C18.4643 6.54031 18.2421 6.63772 18.0065 6.65687V6.6741C18.2703 6.68983 18.5758 6.8127 18.7686 7.01199C18.9356 7.18506 19.0475 7.44429 19.0475 7.75596C19.0475 8.26768 18.7504 8.60632 18.4881 8.77939C18.0775 9.05585 17.5438 9.08207 17.1779 9.08207C16.818 9.08207 16.1973 9.06409 15.7512 8.673C15.5012 8.44392 15.3326 8.14093 15.2704 7.80916L15.9176 7.67805C15.969 7.94627 16.0998 8.11933 16.1716 8.18901C16.3371 8.36358 16.6358 8.54339 17.1416 8.54339C17.4039 8.54339 17.7449 8.49319 17.9536 8.35459C18.0555 8.2935 18.1392 8.20677 18.1963 8.1032C18.2534 7.99963 18.2818 7.88293 18.2786 7.76496C18.2786 7.48849 18.172 7.31318 18.0677 7.21878C17.8235 6.99251 17.4735 6.96854 17.1854 6.96854H16.6864V6.4321H17.1854C17.3691 6.4321 17.6398 6.39839 17.8054 6.31897C18.1297 6.17287 18.1917 5.92114 18.1917 5.69562C18.1923 5.6026 18.1703 5.51079 18.1275 5.42798C18.0848 5.34517 18.0225 5.27379 17.946 5.21987C17.7721 5.08127 17.4652 5.02807 17.168 5.02807C16.914 5.02807 16.6002 5.08127 16.3371 5.29554C16.1593 5.44145 16.0386 5.64452 15.9962 5.86944L15.3747 5.70387ZM23.1044 4.57555V8.46023H23.5595V10.1834H22.9472V8.99741H19.9835V10.1834H19.3704V8.46023H19.703C19.872 8.21374 20.0127 7.94939 20.1226 7.67205C20.447 6.85616 20.4817 5.98932 20.5074 4.97563L20.5165 4.57555H23.1044ZM21.0669 5.35024C21.0404 5.99831 20.9626 7.07418 20.6738 7.83688C20.5853 8.06089 20.4462 8.35534 20.394 8.46023H22.4391V5.11573H21.0745L21.0669 5.35024ZM24.0706 5.69637C24.2634 4.75311 24.9885 4.49164 25.9584 4.49164C26.2571 4.49164 26.8339 4.50063 27.2271 4.81305C27.7087 5.1944 27.7162 5.79976 27.7162 6.37366V8.06989C27.7162 8.31338 27.7427 8.60857 27.8304 8.99816H27.1303C27.0875 8.72524 27.0609 8.45005 27.0509 8.17403C26.9299 8.42501 26.5444 9.08432 25.4958 9.08432C24.9265 9.08432 24.5673 8.89477 24.3488 8.69473C24.2188 8.57559 24.1157 8.43042 24.0465 8.26884C23.9773 8.10726 23.9435 7.93295 23.9474 7.75746C23.9474 7.16109 24.2899 6.8142 24.5507 6.64263C25.0928 6.27701 25.7929 6.26653 26.4748 6.26653H27.0509V6.08671C27.0509 5.85071 27.035 5.55702 26.8778 5.34949C26.6495 5.0468 26.2646 5.02807 25.9501 5.02807C25.5827 5.02807 24.8138 5.08127 24.708 5.79902L24.0706 5.69637ZM26.4839 6.80521C25.783 6.80521 25.3816 6.89212 25.1366 7.02099C24.9984 7.08856 24.8824 7.19351 24.8018 7.3237C24.7213 7.4539 24.6796 7.60402 24.6815 7.75671C24.6815 7.93053 24.7526 8.18152 25.0066 8.3456C25.1291 8.43325 25.3385 8.51117 25.6447 8.51117C25.8469 8.5107 26.0465 8.46609 26.2293 8.38049C26.4121 8.2949 26.5736 8.17043 26.7024 8.01594C26.9299 7.74023 27.0509 7.33416 27.0509 7.02099V6.80521H26.4839ZM31.5894 4.57555V5.11573H30.1907V8.99741H29.5262V5.11573H28.1268V4.57555H31.5894ZM35.6198 7.79118C35.4969 8.18509 35.2405 8.52488 34.894 8.75317C34.5447 8.98692 34.1781 9.08282 33.7486 9.08282C33.1196 9.08282 32.6206 8.87529 32.2366 8.44075C31.8427 7.99871 31.6945 7.4368 31.6945 6.82094C31.6945 5.64393 32.359 4.49089 33.766 4.49089C35.4278 4.49089 35.6984 6.01554 35.6984 6.72729V6.88238H32.4626C32.4536 7.17541 32.5045 7.46722 32.6123 7.74023C32.8308 8.26843 33.2323 8.51117 33.7751 8.51117C34.2559 8.51117 34.5447 8.30289 34.702 8.12982C34.8252 7.99871 34.9205 7.81815 34.9734 7.66156L35.6198 7.79118ZM34.9296 6.34594C34.9205 6.07697 34.8509 5.75556 34.7201 5.53979C34.6233 5.37861 34.4846 5.24612 34.3185 5.15612C34.1524 5.06611 33.965 5.0219 33.7758 5.02807C33.3396 5.02807 33.0054 5.23561 32.8058 5.4791C32.6151 5.72936 32.508 6.03243 32.4997 6.34594H34.9296ZM39.5807 4.57555V8.99666H38.9169V5.11573H37.4827C37.4131 7.09066 37.3353 7.67954 37.2037 8.06839C36.9058 8.92774 36.2148 8.99666 35.9086 8.99666H35.8738V8.42351H35.9434C36.146 8.41452 36.4514 8.26768 36.6185 7.96649C36.7493 7.73124 36.8453 7.29894 36.8892 5.07153L36.8983 4.57555H39.5807ZM41.3309 4.57555V6.31822H42.5738C42.9216 6.31822 43.3601 6.35418 43.6746 6.65687C43.8235 6.80446 44.033 7.09815 44.033 7.6271C44.033 8.05265 43.9112 8.41527 43.5861 8.69398C43.2807 8.96145 42.9488 8.99666 42.688 8.99666H40.6671V4.57555H41.3309ZM41.3309 8.46023H42.372C42.5647 8.46023 42.8089 8.46023 43.0274 8.27667C43.1854 8.13881 43.2981 7.91255 43.2981 7.61961C43.2981 7.27272 43.1408 7.09066 43.0017 6.99476C42.8339 6.89212 42.5731 6.85616 42.3969 6.85616H41.3301V8.46023H41.3309ZM47.4994 6.12118C47.466 5.88348 47.3828 5.65533 47.2552 5.45138C47.1335 5.27981 46.8794 5.06179 46.4424 5.06179C46.0576 5.06179 45.7779 5.24385 45.5851 5.55627C45.3417 5.94661 45.2963 6.44784 45.2963 6.80446C45.2963 7.63534 45.5322 7.99871 45.5851 8.06839C45.7333 8.28491 45.9956 8.50967 46.4326 8.50967C46.7653 8.50967 47.0117 8.39879 47.2113 8.14855C47.3686 7.94776 47.4638 7.68104 47.4994 7.43006L48.1292 7.54094C48.0672 7.96649 47.8766 8.35534 47.6211 8.61531C47.3066 8.93673 46.8953 9.08357 46.4145 9.08357C45.8558 9.08357 45.4535 8.88353 45.1912 8.65053C44.7542 8.25119 44.5267 7.54169 44.5267 6.79547C44.5267 6.20734 44.6582 5.6694 44.9909 5.21013C45.2955 4.79507 45.7408 4.49089 46.4583 4.49089C46.9475 4.49089 47.3588 4.63698 47.674 4.99361C47.9265 5.28056 48.0755 5.68738 48.1284 6.0073L47.4994 6.12118ZM51.7574 4.57555V5.11573H50.3579V8.99741H49.6941V5.11573H48.2947V4.57555H51.7574ZM54.2545 4.57555C54.6129 4.57555 54.997 4.59503 55.2948 4.76735C55.4612 4.86325 55.7674 5.10524 55.7674 5.61771C55.7674 5.91215 55.6797 6.16388 55.4687 6.35418C55.3984 6.41337 55.2072 6.5797 54.8926 6.63139V6.64788C55.2155 6.67335 55.5383 6.81345 55.7228 6.99401C55.8097 7.08017 56.0206 7.32367 56.0206 7.74922C56.0206 8.15455 55.846 8.50143 55.5572 8.7277C55.2162 8.98767 54.8322 8.99666 54.473 8.99666H52.2798V4.57555H54.2545ZM52.9421 6.42236H54.1835C54.3937 6.42236 54.6651 6.40663 54.8586 6.19835C54.9705 6.07847 55.0317 5.89342 55.0317 5.69562C55.0355 5.61501 55.02 5.53465 54.9865 5.46109C54.953 5.38753 54.9025 5.32285 54.839 5.27232C54.656 5.11573 54.4458 5.11573 54.244 5.11573H52.9421V6.42236ZM52.9421 8.46023H54.343C54.6651 8.46023 54.9017 8.37257 55.0416 8.24295C55.1807 8.11409 55.2502 7.90506 55.2502 7.70727C55.2538 7.5987 55.2313 7.49085 55.1845 7.39262C55.1377 7.2944 55.068 7.20862 54.9811 7.14236C54.7611 6.97753 54.4466 6.9603 54.281 6.9603H52.9421V8.46023ZM58.5768 4.49089C59.7313 4.49089 60.5878 5.3405 60.5878 6.78798C60.5878 8.23471 59.7313 9.08282 58.5768 9.08282C57.4231 9.08282 56.5673 8.23396 56.5673 6.78798C56.5673 5.3405 57.4231 4.49089 58.5768 4.49089ZM59.8197 6.78873C59.8197 5.3405 59.1113 5.06254 58.5768 5.06254C58.0438 5.06254 57.3354 5.3405 57.3354 6.78873C57.3354 8.23546 58.0438 8.51042 58.5768 8.51042C59.1121 8.50968 59.8197 8.23471 59.8197 6.78873ZM13.0771 13.3691L14.624 18.9065L16.2056 13.3691H18.0458V21.047H16.8263V14.4996L14.9854 21.047H14.0607L12.2523 14.4877V21.047H11.1674V13.3691H13.0771ZM22.4557 13.3691L24.5341 21.0455H23.2246L22.7385 19.1201H20.4795L20.0069 21.0455H18.7738L21.0102 13.3691H22.4557ZM21.609 14.6105L20.7411 18.1131H22.4898L21.609 14.6105ZM26.5897 13.3691V16.5562H28.8714V13.3691H30.159V21.047H28.8714V17.6089H26.5897V21.047H25.303V13.3691H26.5897ZM32.7786 13.3691V16.5562H35.0588V13.3691H36.3471V21.047H35.0588V17.6089H32.7786V21.047H31.4919V13.3691H32.7786ZM38.9811 19.6018V20.9796L38.123 22.6683H37.5689L38.281 21.0455H37.683V19.6018H38.9811ZM42.8195 13.3691V17.9221C42.8195 18.2577 42.7628 18.4712 42.7288 18.8511C42.9662 18.2704 43.0123 18.1798 43.0335 18.1356L45.2479 13.9048V13.3691H46.5354V21.047H45.2479V16.4663C45.2479 16.267 45.2812 16.1539 45.3386 15.4714C45.0899 16.0086 45.2018 15.8303 44.9765 16.2566L42.8188 20.4199V21.0478H41.5312V13.3691H42.8195ZM50.2392 13.3691C50.838 13.3691 51.4361 13.3691 51.8889 13.6485C52.3289 13.928 52.679 14.4996 52.679 15.2923C52.679 15.9411 52.4748 16.2993 52.3168 16.4896C52.124 16.7143 51.8307 16.8919 51.5268 16.9945C51.8889 17.0829 52.1709 17.2732 52.3728 17.4763C52.8151 17.9123 52.9149 18.427 52.9149 18.8863C52.9149 19.927 52.4068 20.4417 52.0341 20.6769C51.4935 21.0238 50.8713 21.0463 50.2733 21.0463H47.8676V13.3691H50.2392ZM49.9686 16.5353C50.2733 16.5353 50.7473 16.5008 50.9734 16.3427C51.2433 16.1532 51.3688 15.7059 51.3688 15.4152C51.3688 15.1028 51.2433 14.7439 51.0074 14.5656C50.7594 14.3738 50.3398 14.3738 50.0926 14.3738H49.1543V16.5353H49.9686ZM50.1825 20.0386C50.3973 20.0386 50.7934 20.0161 51.1087 19.8146C51.5495 19.5351 51.6054 19.1193 51.6054 18.7956C51.6054 18.6046 51.5714 18.0801 51.1533 17.7767C50.8494 17.5542 50.4532 17.543 50.0933 17.543H49.1551V20.0386H50.1825ZM57.0148 13.3691L59.0932 21.0455H57.783L57.2968 19.1201H55.0386L54.5653 21.0455H53.3329L55.5693 13.3691H57.0148ZM56.1673 14.6105L55.2994 18.1131H57.0481L56.1673 14.6105ZM61.1488 13.3691V16.5562H63.429V13.3691H64.7188V21.047H63.429V17.6089H61.1488V21.047H59.8613V13.3691H61.1488ZM70.4057 13.961C71.2752 14.878 71.3432 16.5458 71.3432 17.2066C71.3432 17.8449 71.2752 19.5568 70.4057 20.4529C70.0678 20.8005 69.4561 21.1886 68.564 21.1886C67.7861 21.1886 67.1419 20.889 66.7238 20.4626C66.4411 20.172 65.775 19.3321 65.775 17.2178C65.775 16.4783 65.8642 14.8106 66.7238 13.9392C67.0512 13.6013 67.6606 13.223 68.564 13.223C69.4697 13.223 70.0549 13.5923 70.4057 13.961ZM67.2886 15.4834C67.1994 15.8745 67.1298 16.7353 67.1298 17.2066C67.1298 17.6756 67.1994 18.5387 67.2886 18.9305C67.4466 19.5913 67.8186 20.1375 68.5648 20.1375C68.9836 20.1375 69.5597 19.9824 69.819 18.9305C69.9309 18.472 69.9884 17.9221 69.9884 17.2066C69.9884 16.3772 69.9098 15.8625 69.819 15.4834C69.7056 15.0466 69.4229 14.2749 68.5648 14.2749C68.3402 14.2749 67.5592 14.3416 67.2886 15.4834ZM74.79 13.3691C75.3887 13.3691 75.9875 13.3691 76.4396 13.6485C76.8796 13.928 77.2297 14.4996 77.2297 15.2923C77.2297 15.9411 77.0263 16.2993 76.8683 16.4896C76.6755 16.7143 76.3822 16.8919 76.0775 16.9945C76.4396 17.0829 76.7216 17.2732 76.925 17.4763C77.3658 17.9123 77.4671 18.427 77.4671 18.8863C77.4671 19.927 76.9575 20.4417 76.5863 20.6769C76.0435 21.0238 75.422 21.0463 74.8232 21.0463H72.4183V13.3691H74.79ZM74.5178 16.5353C74.8225 16.5353 75.2973 16.5008 75.5226 16.3427C75.7947 16.1532 75.9187 15.7059 75.9187 15.4152C75.9187 15.1028 75.7947 14.7439 75.5573 14.5656C75.3086 14.3738 74.8905 14.3738 74.6425 14.3738H73.705V16.5353H74.5178ZM74.7333 20.0386C74.9487 20.0386 75.3449 20.0161 75.6594 19.8146C76.1002 19.5351 76.1561 19.1193 76.1561 18.7956C76.1561 18.6046 76.1228 18.0801 75.7048 17.7767C75.4001 17.5542 75.0054 17.543 74.644 17.543H73.7066V20.0386H74.7333ZM81.629 13.3691V17.9221C81.629 18.2577 81.5723 18.4712 81.5391 18.8511C81.775 18.2704 81.8226 18.1798 81.8438 18.1356L84.0574 13.9048V13.3691H85.3442V21.047H84.0574V16.4663C84.0574 16.267 84.0907 16.1539 84.1474 15.4714C83.8994 16.0086 84.0113 15.8303 83.7853 16.2566L81.6283 20.4199V21.0478H80.3408V13.3691H81.629ZM92.1599 13.1443V14.128H92.2158C92.59 14.128 93.3914 14.1513 94.0583 14.7094C94.4763 15.0563 94.995 15.7718 94.995 17.0492C94.995 18.0562 94.6895 18.8069 94.2722 19.2422C93.7075 19.8363 92.9499 19.9719 92.1599 19.9921V21.1227H90.92V19.9921C90.1269 19.9719 89.3693 19.8363 88.8068 19.2422C88.3872 18.8069 88.0833 18.0562 88.0833 17.0492C88.0833 15.7718 88.6027 15.0563 89.0208 14.7094C89.6869 14.1513 90.4883 14.128 90.8617 14.128H90.92V13.1443H92.1599ZM90.9532 15.1357H90.8738C90.3892 15.1357 89.925 15.2923 89.6657 15.559C89.2703 15.9644 89.2363 16.7031 89.2363 17.0605C89.2363 17.8224 89.3708 18.4383 89.891 18.7619C90.241 18.974 90.7498 18.9964 90.9532 18.9859V15.1357ZM92.1258 18.9867C92.33 18.9979 92.838 18.9747 93.1881 18.7627C93.7075 18.4383 93.8428 17.8224 93.8428 17.0612C93.8428 16.7038 93.8095 15.9651 93.4141 15.5598C93.3234 15.4714 92.9733 15.1365 92.2052 15.1365H92.1258V18.9867ZM100.41 13.3691V14.4195H97.2601V16.5562H99.7315V17.6089H97.2601V19.9936H100.466V21.047H95.971V13.3691H100.41ZM103.205 13.3691C104.017 13.3691 104.83 13.4118 105.428 14.0059C105.79 14.364 106.05 14.9582 106.05 15.7403C106.05 16.2888 105.892 16.9031 105.541 17.307C104.944 18.0127 103.982 18.0449 103.238 18.0449H102.561V21.0455H101.272V13.3691H103.205ZM102.561 17.0395H103.205C103.724 17.0395 104.21 17.0275 104.492 16.5907C104.56 16.4783 104.695 16.2198 104.695 15.7171C104.695 15.4482 104.661 15.0563 104.436 14.7664C104.142 14.3753 103.734 14.3753 103.205 14.3753H102.561V17.0395ZM111.369 14.3745H108.207V16.5015H109.528C109.878 16.5015 110.623 16.536 111.187 17.0043C111.482 17.2635 111.876 17.7662 111.876 18.7057C111.876 19.3223 111.696 19.9936 111.323 20.4192C110.815 20.9998 110.149 21.0455 109.732 21.0455H106.918V13.3691H111.369V14.3745ZM108.207 20.0386H109.369C109.709 20.0386 110.058 19.9037 110.25 19.7014C110.442 19.5014 110.566 19.165 110.566 18.7275C110.566 18.5387 110.544 18.1131 110.25 17.8337C110.047 17.6434 109.664 17.5085 109.301 17.5085H108.207V20.0386ZM117.358 13.3691V14.4195H114.208V16.5562H116.68V17.6089H114.208V19.9936H117.417V21.047H112.921V13.3691H117.358ZM120.154 13.3691C120.966 13.3691 121.78 13.4118 122.378 14.0059C122.74 14.364 123 14.9582 123 15.7403C123 16.2888 122.84 16.9031 122.492 17.307C121.892 18.0127 120.933 18.0449 120.188 18.0449H119.509V21.0455H118.223V13.3691H120.154ZM119.509 17.0395H120.154C120.674 17.0395 121.16 17.0275 121.441 16.5907C121.51 16.4783 121.645 16.2198 121.645 15.7171C121.645 15.4482 121.61 15.0563 121.386 14.7664C121.09 14.3753 120.685 14.3753 120.154 14.3753H119.509V17.0395ZM3.64333 23.1119V2.89431H6.44822V0.00683594H0V26.0001H6.44822V23.1119" fill="#231F20"/>
</svg>
