<svg width="8" height="15" viewBox="0 0 8 15" fill="none" xmlns="http://www.w3.org/2000/svg">
<path d="M6.78091 6.89636L2.00091 1.14636C1.91838 1.04792 1.81637 0.96607 1.70073 0.905529C1.5851 0.844987 1.45812 0.806944 1.32709 0.793585C1.19606 0.780227 1.06357 0.791817 0.937229 0.827689C0.810889 0.863561 0.693194 0.923008 0.590906 1.00261C0.488179 1.0817 0.402774 1.17946 0.3396 1.29028C0.276426 1.40109 0.23673 1.52279 0.22279 1.64835C0.208851 1.77392 0.220945 1.90089 0.258377 2.02197C0.295808 2.14304 0.357839 2.25584 0.440905 2.35386L4.7109 7.50011L0.230905 12.6464C0.146703 12.7432 0.0832641 12.855 0.0442196 12.9754C0.00517509 13.0957 -0.00870694 13.2223 0.00336893 13.3478C0.0154448 13.4734 0.0532411 13.5954 0.114593 13.7069C0.175945 13.8184 0.259647 13.9172 0.360905 13.9976C0.542187 14.137 0.768487 14.2116 1.00091 14.2084C1.14782 14.2087 1.29298 14.1779 1.42606 14.1183C1.55914 14.0586 1.67688 13.9716 1.77091 13.8634L6.77091 8.11345C6.9194 7.94308 7.00158 7.7286 7.0034 7.50662C7.00523 7.28465 6.92658 7.06895 6.78091 6.89636V6.89636Z" fill="#716E6E"/>
</svg>
