<svg width="7" height="15" viewBox="0 0 7 15" fill="none" xmlns="http://www.w3.org/2000/svg">
<path d="M4.99751 13.8325C5.16459 14.0371 5.40965 14.1697 5.67876 14.2012C5.94788 14.2326 6.21901 14.1603 6.43251 14.0002C6.64601 13.8401 6.78439 13.6052 6.81721 13.3473C6.85002 13.0894 6.77459 12.8296 6.60751 12.625L2.28751 7.47875L6.76751 2.34208C6.85171 2.24524 6.91515 2.13344 6.95419 2.01307C6.99324 1.8927 7.00712 1.76613 6.99504 1.64061C6.98297 1.51509 6.94517 1.39309 6.88382 1.28159C6.82247 1.17009 6.73877 1.07128 6.63751 0.990829C6.45759 0.84796 6.23116 0.769976 5.99751 0.770413C5.8506 0.770185 5.70544 0.80098 5.57235 0.860608C5.43927 0.920237 5.32153 1.00723 5.22751 1.11541L0.227507 6.86541C0.0804248 7.03689 1.90735e-05 7.25198 1.90735e-05 7.47396C1.90735e-05 7.69593 0.0804248 7.91102 0.227507 8.0825L4.99751 13.8325Z" fill="#716E6E"/>
</svg>
