<svg width="32" height="32" viewBox="0 0 32 32" fill="none" xmlns="http://www.w3.org/2000/svg">
<path d="M30.7427 9.77272C29.9369 7.86734 28.7835 6.15622 27.3144 4.68697C25.8453 3.21769 24.1343 2.06403 22.229 1.25803C20.2561 0.423375 18.1606 0.000125 16 0C13.8405 0 11.7452 0.423125 9.77222 1.25759C7.86694 2.06344 6.15594 3.21694 4.68675 4.68603C3.21756 6.15513 2.06397 7.86606 1.258 9.77128C0.423375 11.7442 0.000125028 13.8395 2.76937e-08 15.9991C-0.000124972 18.1587 0.422906 20.2542 1.25731 22.2273C2.06309 24.1327 3.21656 25.8438 4.68566 27.313C6.15475 28.7823 7.86572 29.936 9.77103 30.742C11.744 31.5766 13.8395 31.9999 15.9999 32H16.0002C18.1597 32 20.2549 31.5769 22.2279 30.7424C24.1332 29.9366 25.8442 28.7831 27.3133 27.314C28.7825 25.845 29.9361 24.134 30.7421 22.2288C31.5767 20.2558 31.9999 18.1605 32 16.001C32.0001 13.8413 31.5771 11.7458 30.7427 9.77272ZM16.0001 30.5103H15.9992C12.1234 30.51 8.47959 29.0005 5.73909 26.2597C2.99866 23.5189 1.48953 19.875 1.48975 15.9992C1.49022 7.99866 7.9995 1.48978 16.0009 1.48978C19.8767 1.49 23.5204 2.99953 26.2609 5.74031C29.0013 8.48113 30.5104 12.125 30.5102 16.0008C30.5098 24.0013 24.0006 30.5103 16.0001 30.5103Z" fill="#FF0000"/>
<path d="M21.5 8.66659H20.5833V7.74992C20.5833 7.5068 20.4868 7.27365 20.3148 7.10174C20.1429 6.92983 19.9098 6.83325 19.6667 6.83325C19.4236 6.83325 19.1904 6.92983 19.0185 7.10174C18.8466 7.27365 18.75 7.5068 18.75 7.74992V8.66659H13.25V7.74992C13.25 7.5068 13.1534 7.27365 12.9815 7.10174C12.8096 6.92983 12.5764 6.83325 12.3333 6.83325C12.0902 6.83325 11.8571 6.92983 11.6852 7.10174C11.5132 7.27365 11.4167 7.5068 11.4167 7.74992V8.66659H10.5C9.77065 8.66659 9.07118 8.95632 8.55546 9.47204C8.03973 9.98777 7.75 10.6872 7.75 11.4166V22.4166C7.75 23.1459 8.03973 23.8454 8.55546 24.3611C9.07118 24.8769 9.77065 25.1666 10.5 25.1666H21.5C22.2293 25.1666 22.9288 24.8769 23.4445 24.3611C23.9603 23.8454 24.25 23.1459 24.25 22.4166V11.4166C24.25 10.6872 23.9603 9.98777 23.4445 9.47204C22.9288 8.95632 22.2293 8.66659 21.5 8.66659V8.66659ZM10.5 10.4999H11.4167V11.4166C11.4167 11.6597 11.5132 11.8929 11.6852 12.0648C11.8571 12.2367 12.0902 12.3333 12.3333 12.3333C12.5764 12.3333 12.8096 12.2367 12.9815 12.0648C13.1534 11.8929 13.25 11.6597 13.25 11.4166V10.4999H18.75V11.4166C18.75 11.6597 18.8466 11.8929 19.0185 12.0648C19.1904 12.2367 19.4236 12.3333 19.6667 12.3333C19.9098 12.3333 20.1429 12.2367 20.3148 12.0648C20.4868 11.8929 20.5833 11.6597 20.5833 11.4166V10.4999H21.5C21.7431 10.4999 21.9763 10.5965 22.1482 10.7684C22.3201 10.9403 22.4167 11.1735 22.4167 11.4166V15.0833H9.58333V11.4166C9.58333 11.1735 9.67991 10.9403 9.85182 10.7684C10.0237 10.5965 10.2569 10.4999 10.5 10.4999V10.4999ZM21.5 23.3333H10.5C10.2569 23.3333 10.0237 23.2367 9.85182 23.0648C9.67991 22.8929 9.58333 22.6597 9.58333 22.4166V16.9166H22.4167V22.4166C22.4167 22.6597 22.3201 22.8929 22.1482 23.0648C21.9763 23.2367 21.7431 23.3333 21.5 23.3333Z" fill="#FF0000"/>
<path d="M12.3333 20.5833C12.8396 20.5833 13.25 20.1729 13.25 19.6667C13.25 19.1604 12.8396 18.75 12.3333 18.75C11.827 18.75 11.4166 19.1604 11.4166 19.6667C11.4166 20.1729 11.827 20.5833 12.3333 20.5833Z" fill="#FF0000"/>
<path d="M19.6667 18.75H16C15.7569 18.75 15.5238 18.8466 15.3519 19.0185C15.18 19.1904 15.0834 19.4236 15.0834 19.6667C15.0834 19.9098 15.18 20.1429 15.3519 20.3148C15.5238 20.4868 15.7569 20.5833 16 20.5833H19.6667C19.9098 20.5833 20.143 20.4868 20.3149 20.3148C20.4868 20.1429 20.5834 19.9098 20.5834 19.6667C20.5834 19.4236 20.4868 19.1904 20.3149 19.0185C20.143 18.8466 19.9098 18.75 19.6667 18.75Z" fill="#FF0000"/>
</svg>
