<svg width="24" height="24" viewBox="0 0 24 24" fill="none" xmlns="http://www.w3.org/2000/svg">
<path d="M22.6585 12.4514H22.6409V8.3779V5.13942C22.6409 4.83519 22.4015 4.58849 22.1063 4.58849H19.2912L17.1876 0.302263C17.1236 0.171936 17.0119 0.0730546 16.8772 0.0275027C16.7424 -0.0180976 16.5957 -0.00664923 16.4692 0.0592876L7.77956 4.58845H2.16516C0.996094 4.58845 0.0471562 5.52963 0.0020625 6.73238C0.00201562 6.73412 0.00210937 6.73596 0.0020625 6.73779C0.00201562 6.7391 0.00178125 6.74045 0.00173437 6.7418C0.00084375 6.76779 0 6.79368 0 6.81972V21.7688C0 22.9991 0.971297 24 2.16516 24H22.1062C22.4015 24 22.6409 23.7533 22.6409 23.4491V19.2053H22.6585C23.3982 19.2053 24 18.5851 24 17.8229V13.8338C24 13.0716 23.3982 12.4514 22.6585 12.4514ZM21.5716 5.69034V7.82693H20.8806L19.832 5.69034H21.5716ZM8.14837 5.63112C8.14851 5.63107 8.1487 5.63097 8.14884 5.63083L16.4746 1.29122L18.4852 5.38771C18.4852 5.3878 18.4852 5.388 18.4853 5.38809L19.6823 7.82698H18.6461C18.6392 7.808 18.6317 7.78906 18.6226 7.77066L17.2466 4.96701C17.139 4.74771 16.9033 4.6283 16.6689 4.67457L16.5052 4.70689C15.8783 4.83108 15.2336 4.53748 14.9005 3.97709L14.794 3.79798C14.6485 3.55336 14.3453 3.46472 14.0969 3.59418L5.976 7.82688H3.93539L8.14837 5.63112ZM17.4521 7.82698H8.34506L14.1544 4.79901C14.7015 5.52166 15.5817 5.91278 16.4692 5.82429L17.4521 7.82698ZM2.16516 5.69034H5.66555L1.73822 7.73733C1.4362 7.60473 1.20525 7.33552 1.11333 7.01125C1.11248 7.00806 1.1115 7.00492 1.11066 7.00178C1.10484 6.98048 1.09959 6.95889 1.095 6.9371C1.09111 6.91831 1.08778 6.89923 1.08478 6.8801C1.08239 6.86508 1.08014 6.84996 1.07831 6.83474C1.07522 6.80822 1.07302 6.78146 1.0717 6.75441C1.10438 6.15591 1.58025 5.69034 2.16516 5.69034ZM21.5716 22.8982H2.16516C1.56084 22.8982 1.06922 22.3915 1.06922 21.7688V21.5124H17.4049C17.7001 21.5124 17.9395 21.2657 17.9395 20.9614C17.9395 20.6572 17.7001 20.4105 17.4049 20.4105H1.06922V8.62513C1.28222 8.75338 1.51889 8.84405 1.77066 8.89129C1.77206 8.89158 1.77342 8.89182 1.77483 8.89211C1.77544 8.89221 1.776 8.89221 1.77661 8.89236C1.78158 8.89327 1.78655 8.89419 1.79152 8.89511C1.79175 8.89511 1.79189 8.89521 1.79212 8.89521C1.7962 8.89593 1.80028 8.89641 1.80436 8.89714C1.83586 8.90255 1.86745 8.90762 1.89942 8.91158C1.90575 8.9124 1.91198 8.91322 1.91836 8.91395C1.91841 8.91395 1.9185 8.914 1.91859 8.914C1.93341 8.91574 1.94841 8.91675 1.96327 8.9182C1.9852 8.92028 2.00695 8.92279 2.02908 8.92414C2.03456 8.92448 2.04005 8.92486 2.04553 8.9252C2.08725 8.92762 2.12648 8.92883 2.16516 8.92883H6.10355H17.8065H20.5519H21.5716V10.1443H5.09386C4.79864 10.1443 4.55925 10.391 4.55925 10.6953C4.55925 10.9995 4.79864 11.2462 5.09386 11.2462H21.5717V12.4514H13.8382C13.543 12.4514 13.3036 12.6981 13.3036 13.0024V18.6544C13.3036 18.9586 13.543 19.2053 13.8382 19.2053H21.5716V22.8982ZM22.6585 18.1034H22.1062H14.3729V13.5532H22.1062H22.6585C22.8087 13.5532 22.9307 13.6791 22.9307 13.8338V17.8229C22.9308 17.9776 22.8087 18.1034 22.6585 18.1034Z" fill="black"/>
<path d="M17.0286 13.7484C15.9157 13.7484 15.0102 14.6815 15.0102 15.8283C15.0102 16.9753 15.9157 17.9083 17.0286 17.9083C18.1415 17.9083 19.047 16.9752 19.047 15.8283C19.047 14.6815 18.1416 13.7484 17.0286 13.7484ZM17.0286 16.8065C16.5053 16.8065 16.0794 16.3677 16.0794 15.8283C16.0794 15.2891 16.5052 14.8503 17.0286 14.8503C17.5519 14.8503 17.9777 15.2891 17.9777 15.8283C17.9778 16.3677 17.552 16.8065 17.0286 16.8065Z" fill="black"/>
<path d="M19.5544 20.8539C19.5475 20.8186 19.5373 20.7839 19.524 20.7509C19.5106 20.7173 19.494 20.6853 19.4748 20.6556C19.4556 20.6253 19.4331 20.5972 19.4085 20.5718C19.284 20.444 19.0995 20.3851 18.9258 20.4214C18.8916 20.428 18.8579 20.439 18.8258 20.4528C18.7937 20.4666 18.7627 20.4837 18.7333 20.5035C18.7045 20.5233 18.6771 20.5465 18.652 20.5718C18.6274 20.5971 18.605 20.6252 18.5857 20.6555C18.5666 20.6853 18.5499 20.7172 18.5366 20.7508C18.5232 20.7839 18.5131 20.8186 18.5061 20.8539C18.4992 20.8891 18.496 20.9255 18.496 20.9613C18.496 20.9971 18.4992 21.0335 18.5061 21.0693C18.5131 21.104 18.5232 21.1386 18.5366 21.1723C18.5499 21.2054 18.5666 21.2373 18.5857 21.2671C18.605 21.2974 18.6275 21.3255 18.652 21.3508C18.6771 21.3762 18.7044 21.3993 18.7333 21.4197C18.7627 21.4396 18.7938 21.4566 18.8258 21.4704C18.8579 21.4842 18.8916 21.4947 18.9258 21.5018C18.9605 21.509 18.9953 21.5123 19.0305 21.5123C19.0653 21.5123 19.1001 21.5089 19.1348 21.5018C19.169 21.4947 19.2027 21.4842 19.2348 21.4704C19.2668 21.4566 19.2979 21.4395 19.3272 21.4197C19.3561 21.3993 19.3839 21.3762 19.4085 21.3508C19.4331 21.3255 19.4556 21.2974 19.4748 21.2671C19.494 21.2373 19.5106 21.2054 19.524 21.1723C19.5373 21.1387 19.5475 21.104 19.5544 21.0693C19.5613 21.0335 19.5651 20.9971 19.5651 20.9613C19.5651 20.9256 19.5613 20.8891 19.5544 20.8539Z" fill="black"/>
<path d="M3.99261 10.5875C3.98572 10.5522 3.9755 10.5175 3.96214 10.4845C3.94878 10.4514 3.93219 10.4194 3.91297 10.3892C3.89319 10.3594 3.87073 10.3308 3.84613 10.3054C3.82152 10.2801 3.79428 10.2569 3.76484 10.2371C3.73597 10.2173 3.70499 10.2002 3.67288 10.1864C3.64025 10.1727 3.60659 10.1622 3.57289 10.155C3.50394 10.1407 3.43283 10.1407 3.36388 10.155C3.32961 10.1622 3.29591 10.1727 3.26389 10.1864C3.23127 10.2002 3.20028 10.2173 3.17141 10.2371C3.14202 10.2569 3.11473 10.2801 3.09013 10.3054C3.06552 10.3308 3.04306 10.3594 3.02384 10.3892C3.00467 10.4195 2.98803 10.4514 2.97467 10.4845C2.96131 10.5175 2.95119 10.5522 2.9442 10.5875C2.93727 10.6233 2.93356 10.6592 2.93356 10.6949C2.93356 10.7313 2.93727 10.7671 2.9442 10.8029C2.95119 10.8382 2.96131 10.8729 2.97467 10.9059C2.98803 10.939 3.00467 10.9709 3.02384 11.0012C3.04311 11.031 3.06556 11.0591 3.09013 11.0844C3.11473 11.1103 3.14197 11.1329 3.17141 11.1533C3.20028 11.1731 3.23127 11.1902 3.26389 11.204C3.29595 11.2177 3.32961 11.2282 3.36388 11.2354C3.39809 11.2425 3.43339 11.2463 3.46813 11.2463C3.50281 11.2463 3.53816 11.2425 3.57289 11.2354C3.60659 11.2282 3.64025 11.2177 3.67288 11.204C3.70494 11.1902 3.73597 11.1731 3.76484 11.1533C3.79423 11.1329 3.82152 11.1103 3.84613 11.0844C3.87073 11.059 3.89319 11.031 3.91297 11.0012C3.93223 10.9709 3.94878 10.9389 3.96214 10.9059C3.9755 10.8729 3.98567 10.8382 3.99261 10.8029C3.99955 10.7671 4.00278 10.7312 4.00278 10.6949C4.00273 10.6592 3.9995 10.6233 3.99261 10.5875Z" fill="black"/>
</svg>
