<svg width="22" height="22" viewBox="0 0 22 22" fill="none" xmlns="http://www.w3.org/2000/svg">
<path d="M16.5 3.66659H15.5833V2.74992C15.5833 2.5068 15.4868 2.27365 15.3148 2.10174C15.1429 1.92983 14.9098 1.83325 14.6667 1.83325C14.4236 1.83325 14.1904 1.92983 14.0185 2.10174C13.8466 2.27365 13.75 2.5068 13.75 2.74992V3.66659H8.25V2.74992C8.25 2.5068 8.15342 2.27365 7.98151 2.10174C7.80961 1.92983 7.57645 1.83325 7.33333 1.83325C7.09022 1.83325 6.85706 1.92983 6.68515 2.10174C6.51324 2.27365 6.41667 2.5068 6.41667 2.74992V3.66659H5.5C4.77065 3.66659 4.07118 3.95632 3.55546 4.47204C3.03973 4.98777 2.75 5.68724 2.75 6.41659V17.4166C2.75 18.1459 3.03973 18.8454 3.55546 19.3611C4.07118 19.8769 4.77065 20.1666 5.5 20.1666H16.5C17.2293 20.1666 17.9288 19.8769 18.4445 19.3611C18.9603 18.8454 19.25 18.1459 19.25 17.4166V6.41659C19.25 5.68724 18.9603 4.98777 18.4445 4.47204C17.9288 3.95632 17.2293 3.66659 16.5 3.66659ZM5.5 5.49992H6.41667V6.41659C6.41667 6.6597 6.51324 6.89286 6.68515 7.06477C6.85706 7.23667 7.09022 7.33325 7.33333 7.33325C7.57645 7.33325 7.80961 7.23667 7.98151 7.06477C8.15342 6.89286 8.25 6.6597 8.25 6.41659V5.49992H13.75V6.41659C13.75 6.6597 13.8466 6.89286 14.0185 7.06477C14.1904 7.23667 14.4236 7.33325 14.6667 7.33325C14.9098 7.33325 15.1429 7.23667 15.3148 7.06477C15.4868 6.89286 15.5833 6.6597 15.5833 6.41659V5.49992H16.5C16.7431 5.49992 16.9763 5.5965 17.1482 5.7684C17.3201 5.94031 17.4167 6.17347 17.4167 6.41659V10.0833H4.58333V6.41659C4.58333 6.17347 4.67991 5.94031 4.85182 5.7684C5.02373 5.5965 5.25688 5.49992 5.5 5.49992ZM16.5 18.3333H5.5C5.25688 18.3333 5.02373 18.2367 4.85182 18.0648C4.67991 17.8929 4.58333 17.6597 4.58333 17.4166V11.9166H17.4167V17.4166C17.4167 17.6597 17.3201 17.8929 17.1482 18.0648C16.9763 18.2367 16.7431 18.3333 16.5 18.3333Z" fill="#FF0000"/>
<path d="M7.33335 15.5833C7.83961 15.5833 8.25002 15.1729 8.25002 14.6667C8.25002 14.1604 7.83961 13.75 7.33335 13.75C6.82709 13.75 6.41669 14.1604 6.41669 14.6667C6.41669 15.1729 6.82709 15.5833 7.33335 15.5833Z" fill="#FF0000"/>
<path d="M14.6666 13.75H11C10.7569 13.75 10.5237 13.8466 10.3518 14.0185C10.1799 14.1904 10.0833 14.4236 10.0833 14.6667C10.0833 14.9098 10.1799 15.1429 10.3518 15.3148C10.5237 15.4868 10.7569 15.5833 11 15.5833H14.6666C14.9098 15.5833 15.1429 15.4868 15.3148 15.3148C15.4867 15.1429 15.5833 14.9098 15.5833 14.6667C15.5833 14.4236 15.4867 14.1904 15.3148 14.0185C15.1429 13.8466 14.9098 13.75 14.6666 13.75Z" fill="#FF0000"/>
</svg>
