<svg width="32" height="32" viewBox="0 0 32 32" fill="none" xmlns="http://www.w3.org/2000/svg">
<path d="M30.7427 9.77272C29.9369 7.86734 28.7835 6.15622 27.3144 4.68697C25.8453 3.21769 24.1343 2.06403 22.229 1.25803C20.2561 0.423375 18.1606 0.000125 16 0C13.8405 0 11.7452 0.423125 9.77222 1.25759C7.86694 2.06344 6.15594 3.21694 4.68675 4.68603C3.21756 6.15513 2.06397 7.86606 1.258 9.77128C0.423375 11.7442 0.000125028 13.8395 2.76937e-08 15.9991C-0.000124972 18.1587 0.422906 20.2542 1.25731 22.2273C2.06309 24.1327 3.21656 25.8438 4.68566 27.313C6.15475 28.7823 7.86572 29.936 9.77103 30.742C11.744 31.5766 13.8395 31.9999 15.9999 32H16.0002C18.1597 32 20.2549 31.5769 22.2279 30.7424C24.1332 29.9366 25.8442 28.7831 27.3133 27.314C28.7825 25.845 29.9361 24.134 30.7421 22.2288C31.5767 20.2558 31.9999 18.1605 32 16.001C32.0001 13.8413 31.5771 11.7458 30.7427 9.77272ZM16.0001 30.5103H15.9992C12.1234 30.51 8.47959 29.0005 5.73909 26.2597C2.99866 23.5189 1.48953 19.875 1.48975 15.9992C1.49022 7.99866 7.9995 1.48978 16.0009 1.48978C19.8767 1.49 23.5204 2.99953 26.2609 5.74031C29.0013 8.48112 30.5104 12.125 30.5102 16.0008C30.5098 24.0013 24.0006 30.5103 16.0001 30.5103Z" fill="#BE0000"/>
<path d="M4.8282 12.479C5.06883 13.107 5.36542 13.7127 5.67155 14.3109C6.39895 15.7321 7.14805 17.1132 8.15239 18.3624C9.16736 19.6247 10.3657 20.8481 11.7773 21.6647C12.1699 21.8919 12.5826 22.0835 13.0125 22.2291C14.6712 22.791 16.4904 22.7375 17.0523 22.3629C17.6141 21.9884 16.9453 19.527 17.4536 19.2327C17.9619 18.9384 18.8715 19.5805 19.5404 20.1691C20.2092 20.7577 20.7175 21.266 21.0921 21.6673C21.3267 21.9186 21.4918 22.2185 21.7976 22.3978C22.3034 22.6942 22.9773 22.6614 23.5416 22.663C23.8561 22.6639 24.1707 22.6649 24.4853 22.661C24.6979 22.6584 24.9105 22.6652 25.123 22.655C25.4721 22.638 25.9286 22.5002 25.9024 22.0635C25.8962 21.9602 25.8733 21.8367 25.8323 21.7414C25.7441 21.5366 25.6198 21.324 25.4863 21.1456C24.7908 20.2159 24.3293 19.741 23.9815 19.3664C23.6337 18.9919 22.2023 17.6408 22.1087 17.3733C22.0151 17.1057 21.985 16.987 22.2508 16.6259C22.5167 16.2646 23.0986 15.3534 23.5535 14.6979C23.8387 14.2868 24.0978 13.857 24.3538 13.4273C24.6557 12.9208 24.9396 12.4019 25.1815 11.8639C25.2897 11.6234 25.3879 11.4042 25.3209 11.1346C25.276 10.954 25.1744 10.7954 24.9853 10.7508C24.882 10.7265 24.7694 10.724 24.6637 10.724C24.2691 10.724 23.2391 10.724 23.2391 10.724C23.0529 10.724 22.8667 10.7213 22.6804 10.7217C22.4895 10.722 22.297 10.7205 22.1067 10.7368C21.8359 10.76 21.6699 10.9689 21.5337 11.1794C21.367 11.4371 21.2153 11.7051 21.0537 11.966C20.9432 12.1443 20.835 12.324 20.7288 12.5049C20.5628 12.7874 20.3918 13.0669 20.2208 13.3464C20.1498 13.4623 20.0786 13.5781 20.0086 13.6947C19.808 14.029 18.069 16.3165 17.7212 16.4102C17.3734 16.5039 17.253 16.4771 17.253 15.7681C17.253 15.0591 17.253 11.0327 17.253 11.0327C17.253 11.0327 17.2263 10.7222 16.932 10.7222C16.6377 10.7222 15.2727 10.7222 15.2727 10.7222H12.4574C12.4574 10.7222 11.7952 10.725 12.0293 11.3203C12.2634 11.9155 12.9557 12.0961 12.9557 13.0894C12.9557 14.0825 12.9557 16.982 12.9557 16.982C12.9557 16.982 12.8387 17.8549 12.0829 17.1325C11.4873 16.5633 10.9965 15.8903 10.563 15.1925C10.1121 14.467 9.74895 13.7133 9.42545 12.9236C9.33292 12.6978 9.2413 12.4716 9.14626 12.2468C9.04708 12.0121 8.9488 11.7771 8.85367 11.5408C8.7432 11.2663 8.62501 10.9075 8.32714 10.7811C8.17739 10.7176 8.01176 10.7207 7.85214 10.7207C7.26017 10.7209 6.66823 10.7225 6.0763 10.7214C5.90261 10.7211 5.72892 10.7209 5.55524 10.7214C5.14514 10.7223 4.63508 10.7102 4.5378 11.2225C4.48174 11.5176 4.59317 11.8326 4.68645 12.109C4.72874 12.2347 4.78089 12.3554 4.8282 12.479Z" fill="#BE0000"/>
</svg>
