<svg width="32" height="32" viewBox="0 0 32 32" fill="none" xmlns="http://www.w3.org/2000/svg">
<path d="M30.7427 9.77272C29.9369 7.86734 28.7835 6.15622 27.3144 4.68697C25.8453 3.21769 24.1343 2.06403 22.229 1.25803C20.2561 0.423375 18.1606 0.000125 16 0C13.8405 0 11.7452 0.423125 9.77222 1.25759C7.86694 2.06344 6.15594 3.21694 4.68675 4.68603C3.21756 6.15513 2.06397 7.86606 1.258 9.77128C0.423375 11.7442 0.000125028 13.8395 2.76937e-08 15.9991C-0.000124972 18.1587 0.422906 20.2542 1.25731 22.2273C2.06309 24.1327 3.21656 25.8438 4.68566 27.313C6.15475 28.7823 7.86572 29.936 9.77103 30.742C11.744 31.5766 13.8395 31.9999 15.9999 32H16.0002C18.1597 32 20.2549 31.5769 22.2279 30.7424C24.1332 29.9366 25.8442 28.7831 27.3133 27.314C28.7825 25.845 29.9361 24.134 30.7421 22.2288C31.5767 20.2558 31.9999 18.1605 32 16.001C32.0001 13.8413 31.5771 11.7458 30.7427 9.77272ZM16.0001 30.5103H15.9992C12.1234 30.51 8.47959 29.0005 5.73909 26.2597C2.99866 23.5189 1.48953 19.875 1.48975 15.9992C1.49022 7.99866 7.9995 1.48978 16.0009 1.48978C19.8767 1.49 23.5204 2.99953 26.2609 5.74031C29.0013 8.48112 30.5104 12.125 30.5102 16.0008C30.5098 24.0013 24.0006 30.5103 16.0001 30.5103Z" fill="#716E6E"/>
<path d="M19.5597 9.3698C17.7466 9.31639 15.9325 9.3038 14.119 9.33202C8.98465 9.42973 6.83012 9.35089 6.5715 13.3006C6.51569 14.9715 6.51162 16.6385 6.5594 18.309C6.81559 22.6155 8.19712 22.5363 14.119 22.6706C15.7728 22.6964 17.427 22.6881 19.0806 22.646C23.2462 22.5313 25.1836 22.6325 25.4408 18.3067C25.4885 16.6371 25.4844 14.9708 25.4286 13.3006C25.171 9.33495 22.937 9.46602 19.5597 9.3698ZM14.0754 18.4639C14.0653 16.6732 14.0662 14.8815 14.0781 13.0911C15.7434 13.9746 17.4272 14.8845 19.1072 15.7783C17.4287 16.6691 15.7439 17.5785 14.0754 18.4639Z" fill="#716E6E"/>
</svg>
